<svg width="40" height="40" viewBox="0 0 40 40" fill="none" xmlns="http://www.w3.org/2000/svg">
<circle cx="20" cy="20" r="20" fill="#4D3B7C" fill-opacity="0.8"/>
<circle cx="20" cy="20" r="11.75" stroke="white" stroke-opacity="0.4" stroke-width="2.5"/>
<path fill-rule="evenodd" clip-rule="evenodd" d="M19.5356 13.8391C19.3829 13.9001 19.2398 13.9925 19.1161 14.1161L15.1161 18.1161C14.628 18.6043 14.628 19.3957 15.1161 19.8839C15.6043 20.372 16.3957 20.372 16.8839 19.8839L18.75 18.0177L18.75 25C18.75 25.6904 19.3097 26.25 20 26.25C20.6904 26.25 21.25 25.6904 21.25 25L21.25 18.0178L23.1161 19.8839C23.6043 20.372 24.3957 20.372 24.8839 19.8839C25.372 19.3957 25.372 18.6043 24.8839 18.1161L20.8891 14.1213C20.8719 14.104 20.8543 14.0871 20.8361 14.0707C20.6146 13.8713 20.3215 13.75 20 13.75M19.5356 13.8391C19.6781 13.7821 19.8335 13.7505 19.9963 13.75L19.5356 13.8391Z" fill="white" fill-opacity="0.4"/>
</svg>
