<svg width="274" height="197" viewBox="0 0 274 197" fill="none" xmlns="http://www.w3.org/2000/svg">
<g opacity="0.3" filter="url(#filter0_f_2975_4987)">
<path d="M9.68895 170.045H53.1153C47.6828 164.956 42.9913 159.126 39.5578 152.32C38.9322 151.074 38.3271 149.682 37.96 148.263C37.3344 145.854 37.382 143.354 39.109 141.291C41.3391 138.625 45.3167 138.418 47.9887 140.619C70.5076 159.133 93.8764 169.449 129.096 170.052H130.218V53.7145C130.218 33.6014 109.766 20.0658 91.8231 28.4711C41.2644 52.1636 5.57545 103.1 2.88977 162.81C2.71299 166.756 5.81342 170.052 9.68895 170.052V170.045ZM94.9099 77.8224C93.8356 79.6226 92.3262 80.9519 90.6332 82.0666C88.1107 83.7144 85.1803 84.8776 82.651 86.3454C78.2655 88.8933 74.084 91.815 70.1745 95.076C68.7875 96.2323 67.4072 97.4439 65.7958 98.2471C62.7634 99.7564 59.0918 99.1056 57.7048 95.6992C54.8899 88.7756 62.1514 81.5473 66.3125 76.9085C70.5552 72.1866 75.403 68.0394 80.7132 64.6122C85.3979 61.5866 91.7687 62.3621 94.8487 67.5409C96.7185 70.6911 96.7933 74.6861 94.9167 77.8294L94.9099 77.8224Z" fill="#D04376"/>
</g>
<g filter="url(#filter1_f_2975_4987)">
<rect width="72" height="187" transform="matrix(-1 0 0 1 145 4)" fill="url(#paint0_linear_2975_4987)"/>
</g>
<path d="M204.509 80.836C196.741 81.4635 188.966 82.8289 180.984 84.8011C177.421 85.6838 173.685 83.5323 172.953 79.9395C172.463 77.5259 173.45 75.402 174.949 73.609C175.888 72.485 177.027 71.492 178.132 70.6369C189.208 62.0446 202.824 58.2311 216.558 56.6037C217.67 56.4727 218.782 56.3554 219.893 56.2589C219.907 56.2589 219.914 56.2382 219.9 56.2313C198.923 38.2536 173.105 25.7651 144.657 21V146.416C144.657 161.649 157.024 174 172.277 174H267.04C270.983 174 274.139 170.718 273.959 166.787C273.172 149.692 269.623 133.321 263.733 118.108C254.404 94.0003 230.306 78.7603 204.509 80.836ZM241.547 135.99C238.129 141.368 233.986 146.292 229.284 150.595C228.96 150.891 228.624 151.202 228.275 151.525C223.65 155.804 216.965 161.987 210.544 159.325C207.147 157.919 206.505 154.195 208.003 151.119C208.73 149.635 209.793 148.345 210.846 147.067C210.953 146.937 211.059 146.808 211.165 146.678C214.411 142.713 217.332 138.472 219.873 134.024C220.489 132.943 221.051 131.79 221.618 130.626C222.397 129.027 223.185 127.409 224.14 125.928C224.996 124.598 225.99 123.377 227.226 122.391C230.996 119.384 236.217 119.481 239.911 122.577C243.902 125.922 244.295 131.673 241.547 135.997V135.99Z" fill="#1498AA"/>
<path d="M204.509 80.836C196.741 81.4635 188.966 82.8289 180.984 84.8011C177.421 85.6838 173.685 83.5323 172.953 79.9395C172.463 77.5259 173.45 75.402 174.949 73.609C175.888 72.485 177.027 71.492 178.132 70.6369C189.208 62.0446 202.824 58.2311 216.558 56.6037C217.67 56.4727 218.782 56.3554 219.893 56.2589C219.907 56.2589 219.914 56.2382 219.9 56.2313C198.923 38.2536 173.105 25.7651 144.657 21V146.416C144.657 161.649 157.024 174 172.277 174H267.04C270.983 174 274.139 170.718 273.959 166.787C273.172 149.692 269.623 133.321 263.733 118.108C254.404 94.0003 230.306 78.7603 204.509 80.836ZM241.547 135.99C238.129 141.368 233.986 146.292 229.284 150.595C228.96 150.891 228.624 151.202 228.275 151.525C223.65 155.804 216.965 161.987 210.544 159.325C207.147 157.919 206.505 154.195 208.003 151.119C208.73 149.635 209.793 148.345 210.846 147.067C210.953 146.937 211.059 146.808 211.165 146.678C214.411 142.713 217.332 138.472 219.873 134.024C220.489 132.943 221.051 131.79 221.618 130.626C222.397 129.027 223.185 127.409 224.14 125.928C224.996 124.598 225.99 123.377 227.226 122.391C230.996 119.384 236.217 119.481 239.911 122.577C243.902 125.922 244.295 131.673 241.547 135.997V135.99Z" stroke="#1498AA" style="mix-blend-mode:plus-lighter"/>
<g filter="url(#filter2_d_2975_4987)">
<path d="M35.766 119.445H41.9535C43.0707 119.445 44.016 119.614 44.7895 119.95C45.5629 120.287 46.143 120.756 46.5297 121.357C46.9164 121.952 47.1098 122.646 47.1098 123.441C47.1098 124.322 46.852 125.049 46.3363 125.622C45.8279 126.195 45.1547 126.578 44.3168 126.771V126.922C44.9184 126.951 45.477 127.122 45.9926 127.438C46.5154 127.753 46.9343 128.193 47.2494 128.759C47.5717 129.317 47.7328 129.965 47.7328 130.703C47.7328 131.541 47.5251 132.282 47.1098 132.927C46.7016 133.571 46.0928 134.08 45.2836 134.452C44.4815 134.817 43.5076 135 42.3617 135H35.766V119.445ZM41.7172 132.336C42.6195 132.336 43.2891 132.168 43.726 131.831C44.1628 131.487 44.3812 131.011 44.3812 130.402C44.3812 129.965 44.2738 129.579 44.059 129.242C43.8513 128.906 43.5541 128.644 43.1674 128.458C42.7807 128.265 42.3259 128.168 41.8031 128.168H38.9887V132.336H41.7172ZM41.4809 125.955C41.932 125.955 42.3367 125.876 42.6947 125.719C43.0528 125.554 43.3321 125.321 43.5326 125.021C43.7403 124.72 43.8441 124.365 43.8441 123.957C43.8441 123.384 43.64 122.926 43.2318 122.582C42.8308 122.238 42.2686 122.066 41.5453 122.066H38.9887V125.955H41.4809ZM57.3859 123.334H60.5656V135H57.5148V132.895H57.3859C57.1066 133.589 56.659 134.141 56.0432 134.549C55.4344 134.95 54.7004 135.15 53.841 135.15C53.0604 135.15 52.3729 134.975 51.7785 134.624C51.1913 134.273 50.7329 133.768 50.4035 133.109C50.0741 132.443 49.9094 131.663 49.9094 130.768V123.334H53.0891V130.209C53.0891 130.896 53.2717 131.444 53.6369 131.853C54.0093 132.261 54.507 132.465 55.1301 132.465C55.5311 132.465 55.9035 132.372 56.2473 132.186C56.591 131.992 56.8667 131.713 57.0744 131.348C57.2821 130.982 57.3859 130.546 57.3859 130.037V123.334ZM69.8965 126.793C69.832 126.385 69.6279 126.059 69.2842 125.815C68.9404 125.565 68.5072 125.439 67.9844 125.439C67.6406 125.439 67.3291 125.493 67.0498 125.601C66.7777 125.701 66.5628 125.844 66.4053 126.03C66.2477 126.209 66.1725 126.413 66.1797 126.643C66.1582 127.194 66.6595 127.581 67.6836 127.803L69.7676 128.232C70.8991 128.469 71.7406 128.845 72.292 129.36C72.8506 129.876 73.1335 130.553 73.1406 131.391C73.1335 132.15 72.9115 132.819 72.4746 133.399C72.0449 133.979 71.4398 134.431 70.6592 134.753C69.8786 135.075 68.9798 135.236 67.9629 135.236C66.9245 135.236 66.0257 135.09 65.2666 134.796C64.5075 134.495 63.9095 134.069 63.4727 133.518C63.043 132.959 62.7852 132.3 62.6992 131.541H65.9004C65.972 131.999 66.1868 132.347 66.5449 132.583C66.903 132.819 67.3756 132.938 67.9629 132.938C68.543 132.938 69.0085 132.826 69.3594 132.604C69.7174 132.382 69.8965 132.085 69.8965 131.713C69.8965 131.412 69.7676 131.169 69.5098 130.982C69.2591 130.789 68.8581 130.632 68.3066 130.51L66.373 130.123C65.2702 129.908 64.4323 129.518 63.8594 128.952C63.2865 128.386 63.0072 127.674 63.0215 126.814C63.0143 126.077 63.2113 125.436 63.6123 124.892C64.0133 124.34 64.5863 123.918 65.3311 123.624C66.0758 123.33 66.946 123.184 67.9414 123.184C68.9082 123.184 69.7533 123.33 70.4766 123.624C71.1999 123.918 71.7656 124.337 72.1738 124.881C72.5892 125.418 72.8255 126.055 72.8828 126.793H69.8965ZM75.2957 123.334H78.4754V135H75.2957V123.334ZM76.8855 121.809C76.5704 121.809 76.2768 121.737 76.0047 121.594C75.7397 121.443 75.5284 121.246 75.3709 121.003C75.2205 120.752 75.1453 120.484 75.1453 120.197C75.1453 119.904 75.2205 119.632 75.3709 119.381C75.5284 119.13 75.7397 118.933 76.0047 118.79C76.2768 118.64 76.5704 118.564 76.8855 118.564C77.1935 118.564 77.4799 118.64 77.7449 118.79C78.0099 118.933 78.2176 119.13 78.368 119.381C78.5255 119.632 78.6043 119.904 78.6043 120.197C78.6043 120.484 78.5255 120.752 78.368 121.003C78.2176 121.246 78.0099 121.443 77.7449 121.594C77.4799 121.737 77.1935 121.809 76.8855 121.809ZM84.3258 135H81.1461V123.334H84.1754V125.375H84.3043C84.5764 124.688 85.0169 124.15 85.6256 123.764C86.2343 123.377 86.9612 123.184 87.8062 123.184C88.6155 123.184 89.3245 123.359 89.9332 123.71C90.5419 124.061 91.011 124.569 91.3404 125.235C91.6699 125.894 91.831 126.671 91.8238 127.566V135H88.6656V128.125C88.6656 127.409 88.4794 126.847 88.107 126.438C87.7346 126.03 87.219 125.826 86.5602 125.826C85.8798 125.826 85.3355 126.041 84.9273 126.471C84.5263 126.9 84.3258 127.495 84.3258 128.254V135ZM99.7797 135.236C98.598 135.236 97.574 134.993 96.7074 134.506C95.848 134.019 95.1856 133.324 94.7201 132.422C94.2546 131.512 94.0219 130.445 94.0219 129.221C94.0219 128.025 94.251 126.972 94.7094 126.062C95.1749 125.146 95.8337 124.437 96.6859 123.936C97.5381 123.434 98.5264 123.184 99.6508 123.184C100.696 123.184 101.631 123.406 102.454 123.85C103.285 124.286 103.937 124.949 104.41 125.837C104.889 126.725 105.129 127.81 105.129 129.092V129.994H97.1586C97.1586 130.574 97.266 131.079 97.4809 131.509C97.7029 131.938 98.0144 132.271 98.4154 132.508C98.8236 132.737 99.2999 132.852 99.8441 132.852C100.367 132.852 100.818 132.748 101.198 132.54C101.577 132.325 101.849 132.035 102.014 131.67H105.043C104.893 132.386 104.585 133.013 104.12 133.55C103.654 134.087 103.049 134.502 102.304 134.796C101.566 135.09 100.725 135.236 99.7797 135.236ZM102.121 127.996C102.121 127.531 102.018 127.115 101.81 126.75C101.609 126.378 101.327 126.088 100.961 125.88C100.596 125.672 100.181 125.568 99.7152 125.568C99.2426 125.568 98.8129 125.676 98.4262 125.891C98.0466 126.105 97.7423 126.399 97.5131 126.771C97.2911 127.144 97.1729 127.552 97.1586 127.996H102.121ZM113.987 126.793C113.923 126.385 113.719 126.059 113.375 125.815C113.031 125.565 112.598 125.439 112.075 125.439C111.732 125.439 111.42 125.493 111.141 125.601C110.869 125.701 110.654 125.844 110.496 126.03C110.339 126.209 110.264 126.413 110.271 126.643C110.249 127.194 110.751 127.581 111.775 127.803L113.859 128.232C114.99 128.469 115.832 128.845 116.383 129.36C116.942 129.876 117.224 130.553 117.232 131.391C117.224 132.15 117.002 132.819 116.566 133.399C116.136 133.979 115.531 134.431 114.75 134.753C113.97 135.075 113.071 135.236 112.054 135.236C111.015 135.236 110.117 135.09 109.358 134.796C108.598 134.495 108.001 134.069 107.564 133.518C107.134 132.959 106.876 132.3 106.79 131.541H109.991C110.063 131.999 110.278 132.347 110.636 132.583C110.994 132.819 111.467 132.938 112.054 132.938C112.634 132.938 113.099 132.826 113.45 132.604C113.808 132.382 113.987 132.085 113.987 131.713C113.987 131.412 113.859 131.169 113.601 130.982C113.35 130.789 112.949 130.632 112.398 130.51L110.464 130.123C109.361 129.908 108.523 129.518 107.95 128.952C107.377 128.386 107.098 127.674 107.112 126.814C107.105 126.077 107.302 125.436 107.703 124.892C108.104 124.34 108.677 123.918 109.422 123.624C110.167 123.33 111.037 123.184 112.032 123.184C112.999 123.184 113.844 123.33 114.568 123.624C115.291 123.918 115.857 124.337 116.265 124.881C116.68 125.418 116.917 126.055 116.974 126.793H113.987ZM126.047 126.793C125.982 126.385 125.778 126.059 125.435 125.815C125.091 125.565 124.658 125.439 124.135 125.439C123.791 125.439 123.479 125.493 123.2 125.601C122.928 125.701 122.713 125.844 122.556 126.03C122.398 126.209 122.323 126.413 122.33 126.643C122.309 127.194 122.81 127.581 123.834 127.803L125.918 128.232C127.049 128.469 127.891 128.845 128.442 129.36C129.001 129.876 129.284 130.553 129.291 131.391C129.284 132.15 129.062 132.819 128.625 133.399C128.195 133.979 127.59 134.431 126.81 134.753C126.029 135.075 125.13 135.236 124.113 135.236C123.075 135.236 122.176 135.09 121.417 134.796C120.658 134.495 120.06 134.069 119.623 133.518C119.193 132.959 118.936 132.3 118.85 131.541H122.051C122.122 131.999 122.337 132.347 122.695 132.583C123.053 132.819 123.526 132.938 124.113 132.938C124.693 132.938 125.159 132.826 125.51 132.604C125.868 132.382 126.047 132.085 126.047 131.713C126.047 131.412 125.918 131.169 125.66 130.982C125.41 130.789 125.008 130.632 124.457 130.51L122.523 130.123C121.421 129.908 120.583 129.518 120.01 128.952C119.437 128.386 119.158 127.674 119.172 126.814C119.165 126.077 119.362 125.436 119.763 124.892C120.164 124.34 120.737 123.918 121.481 123.624C122.226 123.33 123.096 123.184 124.092 123.184C125.059 123.184 125.904 123.33 126.627 123.624C127.35 123.918 127.916 124.337 128.324 124.881C128.74 125.418 128.976 126.055 129.033 126.793H126.047ZM93.5641 154.893C93.4996 154.277 93.2311 153.797 92.7584 153.453C92.2857 153.109 91.6591 152.938 90.8785 152.938C90.3414 152.938 89.8795 153.016 89.4928 153.174C89.1132 153.324 88.8232 153.535 88.6227 153.808C88.4221 154.08 88.3219 154.391 88.3219 154.742C88.3219 155.243 88.5475 155.645 88.9986 155.945C89.4498 156.246 90.0549 156.482 90.8141 156.654L92.2105 156.998C93.65 157.32 94.7851 157.854 95.6158 158.599C96.4537 159.336 96.8727 160.321 96.8727 161.553C96.8727 162.505 96.6327 163.332 96.1529 164.034C95.6731 164.729 94.982 165.266 94.0797 165.646C93.1773 166.025 92.1031 166.215 90.857 166.215C89.5966 166.215 88.5009 166.021 87.5699 165.635C86.6461 165.248 85.9264 164.679 85.4107 163.927C84.9023 163.168 84.6337 162.24 84.6051 161.145H87.7418C87.7919 161.911 88.0927 162.498 88.6441 162.906C89.2027 163.307 89.926 163.508 90.8141 163.508C91.3727 163.508 91.8632 163.425 92.2857 163.261C92.7083 163.096 93.0341 162.867 93.2633 162.573C93.4924 162.28 93.607 161.939 93.607 161.553C93.607 161.051 93.3886 160.654 92.9518 160.36C92.5221 160.067 91.8525 159.805 90.943 159.576L89.2457 159.168C86.4241 158.473 85.0133 157.062 85.0133 154.936C85.0133 154.005 85.2639 153.185 85.7652 152.476C86.2737 151.759 86.9755 151.208 87.8707 150.821C88.7659 150.427 89.7757 150.23 90.9 150.23C92.0315 150.23 93.0305 150.427 93.8971 150.821C94.7636 151.215 95.4368 151.767 95.9166 152.476C96.3964 153.177 96.6435 153.983 96.6578 154.893H93.5641ZM99.1137 154.334H102.293V166H99.1137V154.334ZM100.704 152.809C100.388 152.809 100.095 152.737 99.8227 152.594C99.5577 152.443 99.3464 152.246 99.1889 152.003C99.0385 151.752 98.9633 151.484 98.9633 151.197C98.9633 150.904 99.0385 150.632 99.1889 150.381C99.3464 150.13 99.5577 149.933 99.8227 149.79C100.095 149.64 100.388 149.564 100.704 149.564C101.011 149.564 101.298 149.64 101.563 149.79C101.828 149.933 102.036 150.13 102.186 150.381C102.343 150.632 102.422 150.904 102.422 151.197C102.422 151.484 102.343 151.752 102.186 152.003C102.036 152.246 101.828 152.443 101.563 152.594C101.298 152.737 101.011 152.809 100.704 152.809ZM109.261 166.193C108.359 166.193 107.549 165.961 106.833 165.495C106.117 165.022 105.551 164.335 105.136 163.433C104.721 162.523 104.513 161.438 104.513 160.178C104.513 158.889 104.724 157.797 105.147 156.901C105.569 155.999 106.139 155.322 106.855 154.871C107.578 154.413 108.38 154.184 109.261 154.184C110.142 154.184 110.847 154.388 111.377 154.796C111.907 155.204 112.305 155.702 112.57 156.289H112.677V150.445H115.857V166H112.72V164.131H112.57C112.297 164.711 111.893 165.201 111.356 165.603C110.819 165.996 110.12 166.193 109.261 166.193ZM110.249 163.658C110.772 163.658 111.22 163.515 111.592 163.229C111.964 162.935 112.247 162.527 112.441 162.004C112.641 161.474 112.741 160.858 112.741 160.156C112.741 159.096 112.523 158.258 112.086 157.643C111.649 157.027 111.037 156.719 110.249 156.719C109.461 156.719 108.853 157.03 108.423 157.653C107.993 158.276 107.779 159.111 107.779 160.156C107.779 161.216 107.993 162.065 108.423 162.702C108.853 163.34 109.461 163.658 110.249 163.658ZM123.898 166.236C122.717 166.236 121.693 165.993 120.826 165.506C119.967 165.019 119.304 164.324 118.839 163.422C118.373 162.512 118.141 161.445 118.141 160.221C118.141 159.025 118.37 157.972 118.828 157.062C119.294 156.146 119.952 155.437 120.805 154.936C121.657 154.434 122.645 154.184 123.77 154.184C124.815 154.184 125.75 154.406 126.573 154.85C127.404 155.286 128.056 155.949 128.528 156.837C129.008 157.725 129.248 158.81 129.248 160.092V160.994H121.277C121.277 161.574 121.385 162.079 121.6 162.509C121.822 162.938 122.133 163.271 122.534 163.508C122.942 163.737 123.419 163.852 123.963 163.852C124.486 163.852 124.937 163.748 125.316 163.54C125.696 163.325 125.968 163.035 126.133 162.67H129.162C129.012 163.386 128.704 164.013 128.238 164.55C127.773 165.087 127.168 165.502 126.423 165.796C125.685 166.09 124.844 166.236 123.898 166.236ZM126.24 158.996C126.24 158.531 126.136 158.115 125.929 157.75C125.728 157.378 125.445 157.088 125.08 156.88C124.715 156.672 124.299 156.568 123.834 156.568C123.361 156.568 122.932 156.676 122.545 156.891C122.165 157.105 121.861 157.399 121.632 157.771C121.41 158.144 121.292 158.552 121.277 158.996H126.24Z" fill="#1498AA"/>
</g>
<defs>
<filter id="filter0_f_2975_4987" x="0.882568" y="23.9355" width="131.335" height="148.116" filterUnits="userSpaceOnUse" color-interpolation-filters="sRGB">
<feFlood flood-opacity="0" result="BackgroundImageFix"/>
<feBlend mode="normal" in="SourceGraphic" in2="BackgroundImageFix" result="shape"/>
<feGaussianBlur stdDeviation="1" result="effect1_foregroundBlur_2975_4987"/>
</filter>
<filter id="filter1_f_2975_4987" x="69" y="0" width="80" height="195" filterUnits="userSpaceOnUse" color-interpolation-filters="sRGB">
<feFlood flood-opacity="0" result="BackgroundImageFix"/>
<feBlend mode="normal" in="SourceGraphic" in2="BackgroundImageFix" result="shape"/>
<feGaussianBlur stdDeviation="2" result="effect1_foregroundBlur_2975_4987"/>
</filter>
<filter id="filter2_d_2975_4987" x="5.76611" y="88.5645" width="153.525" height="107.672" filterUnits="userSpaceOnUse" color-interpolation-filters="sRGB">
<feFlood flood-opacity="0" result="BackgroundImageFix"/>
<feColorMatrix in="SourceAlpha" type="matrix" values="0 0 0 0 0 0 0 0 0 0 0 0 0 0 0 0 0 0 127 0" result="hardAlpha"/>
<feOffset/>
<feGaussianBlur stdDeviation="15"/>
<feComposite in2="hardAlpha" operator="out"/>
<feColorMatrix type="matrix" values="0 0 0 0 0.141176 0 0 0 0 0.12549 0 0 0 0 0.211765 0 0 0 1 0"/>
<feBlend mode="normal" in2="BackgroundImageFix" result="effect1_dropShadow_2975_4987"/>
<feBlend mode="normal" in="SourceGraphic" in2="effect1_dropShadow_2975_4987" result="shape"/>
</filter>
<linearGradient id="paint0_linear_2975_4987" x1="4.31298e-06" y1="133.833" x2="72" y2="133.833" gradientUnits="userSpaceOnUse">
<stop stop-color="#242036"/>
<stop offset="1" stop-color="#242036" stop-opacity="0"/>
</linearGradient>
</defs>
</svg>
