<svg width="375" height="355" viewBox="0 0 375 355" fill="none" xmlns="http://www.w3.org/2000/svg">
<g filter="url(#filter0_d_2960_4928)">
<rect x="100.472" y="0.621878" width="109" height="136" rx="19.5" transform="rotate(16.5783 100.472 0.621878)" fill="#242036"/>
<rect x="100.472" y="0.621878" width="109" height="136" rx="19.5" transform="rotate(16.5783 100.472 0.621878)" fill="#D04376" fill-opacity="0.2"/>
<rect x="100.472" y="0.621878" width="109" height="136" rx="19.5" transform="rotate(16.5783 100.472 0.621878)" stroke="#D04376"/>
<path d="M90.0503 103.421L131.071 44.8142L154.343 51.7423L156.541 123.216L138.122 117.732L138.011 103.809L116.222 97.3226L108.56 108.931L90.0503 103.421ZM137.91 89.6935L137.716 65.8664L137.177 65.7059L124.027 85.5607L137.91 89.6935Z" fill="#D04376"/>
<rect x="315.426" y="114.622" width="109" height="136" rx="19.5" transform="rotate(16.5783 315.426 114.622)" fill="#242036"/>
<rect x="315.426" y="114.622" width="109" height="136" rx="19.5" transform="rotate(16.5783 315.426 114.622)" fill="#D04376" fill-opacity="0.2"/>
<rect x="315.426" y="114.622" width="109" height="136" rx="19.5" transform="rotate(16.5783 315.426 114.622)" stroke="#D04376"/>
<path d="M305.004 217.421L346.025 158.814L369.297 165.742L371.495 237.216L353.076 231.732L352.965 217.809L331.176 211.323L323.514 222.931L305.004 217.421ZM352.864 203.694L352.67 179.866L352.131 179.706L338.982 199.561L352.864 203.694Z" fill="#D04376"/>
<rect x="0.561727" y="117.507" width="109" height="136" rx="19.5" transform="rotate(0.865471 0.561727 117.507)" fill="#242036"/>
<rect x="0.561727" y="117.507" width="109" height="136" rx="19.5" transform="rotate(0.865471 0.561727 117.507)" fill="#1498AA" fill-opacity="0.2"/>
<rect x="0.561727" y="117.507" width="109" height="136" rx="19.5" transform="rotate(0.865471 0.561727 117.507)" stroke="#1498AA"/>
<path d="M27.6428 151.546L56.702 151.985C61.7639 152.061 66.0497 152.829 69.5593 154.288C73.1006 155.717 75.7425 157.726 77.4848 160.315C79.2589 162.873 80.1195 165.902 80.0666 169.402C80.0293 171.871 79.4483 174.128 78.3235 176.173C77.1992 178.188 75.6422 179.883 73.6524 181.26C71.6631 182.605 69.3833 183.524 66.8131 184.016L66.8032 184.672C69.6452 184.809 72.2432 185.583 74.5971 186.993C76.9823 188.404 78.8596 190.339 80.2289 192.798C81.5986 195.225 82.2599 198.001 82.2127 201.126C82.157 204.813 81.1385 208.095 79.1574 210.971C77.2079 213.817 74.424 216.041 70.8056 217.643C67.1877 219.213 62.9572 219.962 58.114 219.889L26.6176 219.413L27.6428 151.546ZM53.7374 205.477C56.8933 205.525 59.277 204.967 60.8885 203.804C62.5313 202.641 63.3701 200.903 63.4051 198.591C63.4423 196.123 62.6431 194.204 61.0073 192.836C59.372 191.436 57.1171 190.714 54.2424 190.671L44.8685 190.529L44.6447 205.34L53.7374 205.477ZM53.0048 179.494C55.5358 179.533 57.5914 178.97 59.1716 177.806C60.7832 176.643 61.605 174.999 61.6371 172.874C61.6691 170.749 60.9443 169.082 59.4624 167.872C57.9805 166.662 55.9897 166.038 53.49 166L45.2409 165.876L45.037 179.374L53.0048 179.494Z" fill="#1498AA"/>
<rect x="6.57555" y="254.535" width="109" height="136" rx="19.5" transform="rotate(-9.4836 6.57555 254.535)" fill="#242036"/>
<rect x="6.57555" y="254.535" width="109" height="136" rx="19.5" transform="rotate(-9.4836 6.57555 254.535)" fill="#D04376" fill-opacity="0.2"/>
<rect x="6.57555" y="254.535" width="109" height="136" rx="19.5" transform="rotate(-9.4836 6.57555 254.535)" stroke="#D04376"/>
<path d="M42.3769 351.461L53.4785 280.791L77.4279 276.79L110.804 340.031L91.8477 343.197L85.6319 330.738L63.2082 334.484L61.4255 348.279L42.3769 351.461ZM79.3389 318.103L68.6964 296.784L68.1416 296.876L65.0525 320.489L79.3389 318.103Z" fill="#D04376"/>
<rect x="184.594" y="57.3967" width="109" height="136" rx="19.5" transform="rotate(-9.52875 184.594 57.3967)" fill="#242036"/>
<rect x="184.594" y="57.3967" width="109" height="136" rx="19.5" transform="rotate(-9.52875 184.594 57.3967)" fill="#1498AA" fill-opacity="0.2"/>
<rect x="184.594" y="57.3967" width="109" height="136" rx="19.5" transform="rotate(-9.52875 184.594 57.3967)" stroke="#1498AA"/>
<path d="M217.373 85.99L246.034 81.1789C251.027 80.3409 255.381 80.323 259.096 81.1253C262.837 81.8915 265.798 83.3908 267.979 85.6231C270.185 87.8194 271.578 90.6434 272.158 94.0951C272.566 96.5298 272.402 98.8547 271.665 101.07C270.922 103.254 269.697 105.203 267.988 106.915C266.274 108.597 264.197 109.912 261.758 110.86L261.867 111.508C264.687 111.129 267.382 111.422 269.952 112.384C272.552 113.342 274.748 114.907 276.538 117.078C278.323 119.218 279.475 121.829 279.992 124.911C280.602 128.547 280.193 131.959 278.763 135.146C277.359 138.297 275.022 140.987 271.752 143.215C268.477 145.412 264.451 146.912 259.674 147.714L228.609 152.929L217.373 85.99ZM252.769 134.329C255.882 133.806 258.126 132.827 259.501 131.392C260.907 129.952 261.419 128.092 261.036 125.811C260.627 123.377 259.495 121.634 257.639 120.583C255.778 119.501 253.43 119.198 250.595 119.674L241.349 121.226L243.801 135.834L252.769 134.329ZM247.361 108.904C249.857 108.485 251.777 107.561 253.122 106.131C254.497 104.696 255.009 102.931 254.657 100.835C254.305 98.7395 253.291 97.2303 251.615 96.3075C249.94 95.3846 247.869 95.1302 245.403 95.544L237.267 96.9098L239.502 110.223L247.361 108.904Z" fill="#1498AA"/>
<rect x="101.489" y="168.562" width="109" height="136" rx="19.5" transform="rotate(-5.30574 101.489 168.562)" fill="#242036"/>
<rect x="101.489" y="168.562" width="109" height="136" rx="19.5" transform="rotate(-5.30574 101.489 168.562)" fill="#D04376" fill-opacity="0.2"/>
<rect x="101.489" y="168.562" width="109" height="136" rx="19.5" transform="rotate(-5.30574 101.489 168.562)" stroke="#D04376"/>
<path d="M130.135 267.839L146.355 198.165L170.533 195.92L199.213 261.424L180.076 263.201L174.784 250.323L152.148 252.425L149.365 266.053L130.135 267.839ZM169.429 237.262L160.368 215.224L159.808 215.276L155.007 238.601L169.429 237.262Z" fill="#D04376"/>
<rect x="192.318" y="168.237" width="109" height="136" rx="19.5" transform="rotate(11.4059 192.318 168.237)" fill="#242036"/>
<rect x="192.318" y="168.237" width="109" height="136" rx="19.5" transform="rotate(11.4059 192.318 168.237)" fill="#1498AA" fill-opacity="0.2"/>
<rect x="192.318" y="168.237" width="109" height="136" rx="19.5" transform="rotate(11.4059 192.318 168.237)" stroke="#1498AA"/>
<path d="M212.716 206.655L241.204 212.403C246.167 213.404 250.24 214.943 253.423 217.02C256.643 219.072 258.873 221.53 260.112 224.394C261.388 227.234 261.68 230.369 260.988 233.8C260.5 236.22 259.516 238.333 258.036 240.138C256.562 241.913 254.721 243.295 252.513 244.284C250.311 245.243 247.902 245.729 245.285 245.743L245.155 246.386C247.924 247.041 250.337 248.277 252.393 250.094C254.48 251.918 255.972 254.163 256.868 256.831C257.771 259.468 257.913 262.318 257.295 265.381C256.566 268.996 254.964 272.036 252.49 274.502C250.053 276.943 246.909 278.62 243.059 279.533C239.215 280.415 234.919 280.377 230.171 279.419L199.293 273.19L212.716 206.655ZM228.504 264.45C231.598 265.074 234.044 264.962 235.841 264.113C237.668 263.271 238.811 261.716 239.268 259.449C239.756 257.029 239.322 254.997 237.964 253.352C236.612 251.676 234.527 250.554 231.709 249.986L222.519 248.132L219.59 262.652L228.504 264.45ZM232.537 238.772C235.018 239.272 237.142 239.095 238.908 238.24C240.706 237.391 241.814 235.925 242.235 233.842C242.655 231.759 242.247 229.987 241.012 228.527C239.776 227.066 237.933 226.089 235.482 225.594L227.395 223.963L224.726 237.196L232.537 238.772Z" fill="#1498AA"/>
<rect x="304.896" y="247.613" width="109" height="136" rx="19.5" transform="rotate(15.0367 304.896 247.613)" fill="#242036"/>
<rect x="304.896" y="247.613" width="109" height="136" rx="19.5" transform="rotate(15.0367 304.896 247.613)" fill="#1498AA" fill-opacity="0.2"/>
<rect x="304.896" y="247.613" width="109" height="136" rx="19.5" transform="rotate(15.0367 304.896 247.613)" stroke="#1498AA"/>
<path d="M322.821 287.245L350.889 294.784C355.778 296.098 359.745 297.892 362.791 300.166C365.874 302.418 367.944 305.013 368.999 307.949C370.093 310.864 370.186 314.012 369.278 317.392C368.638 319.776 367.522 321.822 365.93 323.53C364.347 325.208 362.422 326.471 360.156 327.318C357.898 328.136 355.463 328.468 352.85 328.316L352.68 328.95C355.402 329.779 357.731 331.165 359.668 333.109C361.635 335.061 362.982 337.397 363.708 340.115C364.441 342.804 364.403 345.657 363.592 348.675C362.636 352.237 360.845 355.169 358.219 357.473C355.633 359.755 352.389 361.23 348.489 361.897C344.596 362.534 340.311 362.224 335.633 360.968L305.212 352.796L322.821 287.245ZM334.918 345.923C337.966 346.742 340.414 346.785 342.261 346.052C344.139 345.326 345.377 343.847 345.977 341.614C346.618 339.23 346.313 337.174 345.062 335.446C343.819 333.689 341.809 332.437 339.033 331.691L329.979 329.259L326.136 343.564L334.918 345.923ZM340.569 320.552C343.014 321.209 345.144 321.166 346.961 320.425C348.809 319.691 350.008 318.299 350.559 316.246C351.111 314.194 350.816 312.4 349.675 310.864C348.535 309.328 346.757 308.236 344.343 307.587L336.375 305.447L332.873 318.485L340.569 320.552Z" fill="#1498AA"/>
</g>
<rect y="10" width="375" height="345" fill="url(#paint0_linear_2960_4928)"/>
<rect opacity="0.6" y="10" width="375" height="345" fill="url(#paint1_linear_2960_4928)"/>
<defs>
<filter id="filter0_d_2960_4928" x="-5.7002" y="4.87012" width="425.347" height="406.479" filterUnits="userSpaceOnUse" color-interpolation-filters="sRGB">
<feFlood flood-opacity="0" result="BackgroundImageFix"/>
<feColorMatrix in="SourceAlpha" type="matrix" values="0 0 0 0 0 0 0 0 0 0 0 0 0 0 0 0 0 0 127 0" result="hardAlpha"/>
<feOffset dy="4"/>
<feGaussianBlur stdDeviation="2"/>
<feComposite in2="hardAlpha" operator="out"/>
<feColorMatrix type="matrix" values="0 0 0 0 0 0 0 0 0 0 0 0 0 0 0 0 0 0 0.25 0"/>
<feBlend mode="normal" in2="BackgroundImageFix" result="effect1_dropShadow_2960_4928"/>
<feBlend mode="normal" in="SourceGraphic" in2="effect1_dropShadow_2960_4928" result="shape"/>
</filter>
<linearGradient id="paint0_linear_2960_4928" x1="187.5" y1="10" x2="187.5" y2="355" gradientUnits="userSpaceOnUse">
<stop stop-color="#242036" stop-opacity="0"/>
<stop offset="1" stop-color="#242036"/>
</linearGradient>
<linearGradient id="paint1_linear_2960_4928" x1="187.5" y1="10" x2="187.5" y2="355" gradientUnits="userSpaceOnUse">
<stop stop-color="#242036" stop-opacity="0"/>
<stop offset="1" stop-color="#A46FF3"/>
</linearGradient>
</defs>
</svg>
