<svg width="26" height="30" viewBox="0 0 26 30" fill="none" xmlns="http://www.w3.org/2000/svg">
<path d="M12.0344 11.7325C10.4724 11.8556 8.90914 12.1233 7.30419 12.51C6.58779 12.6831 5.83669 12.2612 5.68952 11.5568C5.59095 11.0835 5.78948 10.6671 6.09076 10.3155C6.27958 10.0951 6.50866 9.90039 6.7308 9.73273C8.95773 8.04796 11.6956 7.30022 14.457 6.98112C14.6806 6.95542 14.9041 6.93244 15.1276 6.91351C15.1304 6.91351 15.1318 6.90945 15.129 6.9081C10.9112 3.38306 5.72007 0.934331 0 0V24.5914C0 27.5783 2.48656 30 5.55346 30H24.6074C25.4001 30 26.0346 29.3564 25.9985 28.5857C25.8403 25.2337 25.1266 22.0237 23.9424 19.0409C22.0667 14.3138 17.2213 11.3256 12.0344 11.7325ZM19.4815 22.547C18.7943 23.6017 17.9613 24.5671 17.0158 25.4108C16.0856 26.2397 14.6361 27.6838 13.2478 27.1226C12.5647 26.8468 12.4356 26.1166 12.7369 25.5136C12.8979 25.1931 13.1409 24.9186 13.3727 24.6428C14.0253 23.8653 14.6125 23.0338 15.1235 22.1616C15.4178 21.6586 15.6497 21.0759 15.9815 20.5742C16.1536 20.3132 16.3536 20.0739 16.6021 19.8806C17.3601 19.291 18.4097 19.31 19.1525 19.9171C19.955 20.5729 20.0341 21.7005 19.4815 22.5483V22.547Z" fill="white"/>
</svg>
