<svg width="41" height="14" viewBox="0 0 41 14" fill="none" xmlns="http://www.w3.org/2000/svg">
<path d="M0.0224609 0.273438H3.3623V10.293H8.54785V13H0.0224609V0.273438ZM14.5771 13.1758C13.5693 13.1758 12.6934 12.9707 11.9492 12.5605C11.2109 12.1504 10.6426 11.5762 10.2441 10.8379C9.85156 10.0938 9.65527 9.23242 9.65527 8.25391C9.65527 7.27539 9.85156 6.41699 10.2441 5.67871C10.6426 4.93457 11.2109 4.35742 11.9492 3.94727C12.6934 3.53711 13.5693 3.33203 14.5771 3.33203C15.585 3.33203 16.458 3.53711 17.1963 3.94727C17.9346 4.35742 18.5 4.93457 18.8926 5.67871C19.2852 6.41699 19.4814 7.27539 19.4814 8.25391C19.4814 9.23242 19.2852 10.0938 18.8926 10.8379C18.5 11.5762 17.9346 12.1504 17.1963 12.5605C16.458 12.9707 15.585 13.1758 14.5771 13.1758ZM14.5947 10.7148C15.0576 10.7148 15.4209 10.4922 15.6846 10.0469C15.9541 9.60156 16.0889 8.99805 16.0889 8.23633C16.0889 7.46875 15.9541 6.86523 15.6846 6.42578C15.4209 5.98047 15.0576 5.75781 14.5947 5.75781C14.1143 5.75781 13.7363 5.98047 13.4609 6.42578C13.1855 6.86523 13.0479 7.46875 13.0479 8.23633C13.0479 8.99805 13.1855 9.60156 13.4609 10.0469C13.7363 10.4922 14.1143 10.7148 14.5947 10.7148ZM26.4775 6.53125C26.4424 6.23828 26.2988 6.00391 26.0469 5.82812C25.8008 5.65234 25.499 5.56445 25.1416 5.56445C24.8135 5.56445 24.541 5.62598 24.3242 5.74902C24.1133 5.86621 24.0107 6.02734 24.0166 6.23242C23.999 6.57812 24.3213 6.8125 24.9834 6.93555L26.8818 7.28711C27.8604 7.46289 28.5869 7.76172 29.0615 8.18359C29.5361 8.60547 29.7764 9.16797 29.7822 9.87109C29.7764 10.5332 29.5771 11.1133 29.1846 11.6113C28.792 12.1094 28.2529 12.4961 27.5674 12.7715C26.8818 13.041 26.1025 13.1758 25.2295 13.1758C24.2861 13.1758 23.4688 13.0439 22.7773 12.7803C22.0918 12.5166 21.5527 12.1445 21.1602 11.6641C20.7734 11.1777 20.5479 10.6094 20.4834 9.95898H23.7881C23.8408 10.2637 23.9961 10.501 24.2539 10.6709C24.5117 10.8408 24.8428 10.9258 25.2471 10.9258C25.5869 10.9258 25.8623 10.8672 26.0732 10.75C26.29 10.627 26.4014 10.4629 26.4072 10.2578C26.4014 10.0645 26.3076 9.91211 26.126 9.80078C25.9502 9.68359 25.6689 9.58984 25.2822 9.51953L23.6123 9.2207C22.6514 9.04492 21.9277 8.72266 21.4414 8.25391C20.9551 7.7793 20.7119 7.16992 20.7119 6.42578C20.7119 5.77539 20.8877 5.21875 21.2393 4.75586C21.5908 4.29297 22.0918 3.94141 22.7422 3.70117C23.3984 3.45508 24.1748 3.33203 25.0713 3.33203C25.9678 3.33203 26.7441 3.46094 27.4004 3.71875C28.0625 3.9707 28.5752 4.33691 28.9385 4.81738C29.3076 5.29785 29.5068 5.86914 29.5361 6.53125H26.4775ZM35.6709 13.1758C34.6631 13.1758 33.79 12.9795 33.0518 12.5869C32.3193 12.1943 31.7539 11.6289 31.3555 10.8906C30.9629 10.1523 30.7666 9.27344 30.7666 8.25391C30.7666 7.27539 30.9629 6.41406 31.3555 5.66992C31.7539 4.92578 32.3164 4.35156 33.043 3.94727C33.7754 3.53711 34.6279 3.33203 35.6006 3.33203C36.5439 3.33203 37.3701 3.52832 38.0791 3.9209C38.7881 4.30762 39.3359 4.87012 39.7227 5.6084C40.1152 6.34082 40.3115 7.21094 40.3115 8.21875V9.00977H34.0537V9.13281C34.0537 9.63086 34.2031 10.0381 34.502 10.3545C34.8066 10.665 35.2197 10.8203 35.7412 10.8203C36.1045 10.8203 36.4209 10.7441 36.6904 10.5918C36.96 10.4395 37.1475 10.2285 37.2529 9.95898H40.2939C40.1826 10.6152 39.9248 11.1865 39.5205 11.6729C39.1221 12.1533 38.5947 12.5254 37.9385 12.7891C37.2822 13.0469 36.5264 13.1758 35.6709 13.1758ZM37.2354 7.14648C37.2295 6.86523 37.1562 6.61328 37.0156 6.39062C36.8809 6.16797 36.6963 5.99512 36.4619 5.87207C36.2275 5.74902 35.9639 5.6875 35.6709 5.6875C35.3779 5.6875 35.1084 5.75195 34.8623 5.88086C34.6221 6.00391 34.4287 6.17676 34.2822 6.39941C34.1357 6.61621 34.0596 6.86523 34.0537 7.14648H37.2354Z" fill="url(#paint0_linear_4495_6702)"/>
<defs>
<linearGradient id="paint0_linear_4495_6702" x1="20" y1="-15" x2="20" y2="19" gradientUnits="userSpaceOnUse">
<stop stop-color="white" stop-opacity="0.8"/>
<stop offset="1" stop-color="white" stop-opacity="0"/>
</linearGradient>
</defs>
</svg>
