<svg width="333" height="400" viewBox="0 0 333 400" fill="none" xmlns="http://www.w3.org/2000/svg">
<path d="M18.858 399.981H139.177C124.125 385.856 111.127 369.676 101.614 350.786C99.8804 347.327 98.2038 343.464 97.1866 339.525C95.4535 332.838 95.5853 325.9 100.37 320.174C106.549 312.775 117.569 312.199 124.973 318.31C187.364 369.695 252.111 398.328 349.692 400H352.8V77.1015C352.8 21.277 296.135 -16.2917 246.422 7.03741C106.342 72.797 7.46098 214.174 0.0199533 379.899C-0.469836 390.853 8.12031 400 18.858 400V399.981ZM254.974 144.014C251.998 149.01 247.816 152.7 243.125 155.794C236.136 160.368 228.017 163.596 221.009 167.67C208.859 174.742 197.273 182.851 186.441 191.902C182.598 195.111 178.774 198.474 174.31 200.703C165.908 204.893 155.735 203.086 151.892 193.632C144.093 174.415 164.212 154.353 175.741 141.478C187.496 128.372 200.928 116.861 215.64 107.349C228.62 98.9509 246.271 101.103 254.804 115.477C259.985 124.221 260.192 135.309 254.993 144.033L254.974 144.014Z" fill="#4D3B7C" fill-opacity="0.2"/>
</svg>
