<svg width="44" height="26" viewBox="0 0 44 26" fill="none" xmlns="http://www.w3.org/2000/svg">
<path fill-rule="evenodd" clip-rule="evenodd" d="M21.959 26H3.5032C2.60356 26 1.82724 25.3691 1.64333 24.4885L0.0401255 16.8118C-0.0133751 16.5556 -0.0133752 16.2911 0.0401255 16.0349L1.18652 10.5456C1.50579 9.01682 3.43068 8.50473 4.4674 9.67277L8.83875 14.5978C9.6608 15.524 11.135 15.4289 11.8311 14.4047L20.3876 1.81629C21.1416 0.707069 22.7764 0.707069 23.5304 1.81629L32.0869 14.4047C32.783 15.4289 34.2572 15.524 35.0793 14.5978L39.4506 9.67277C40.4873 8.50473 42.4122 9.01682 42.7315 10.5456L43.8779 16.0349C43.9314 16.2911 43.9314 16.5556 43.8779 16.8118L42.2747 24.4885C42.0908 25.3691 41.3144 26 40.4148 26H21.959Z" fill="url(#paint0_linear_4440_6543)"/>
<path d="M23.2438 10.4723C22.8161 9.31622 21.181 9.31622 20.7532 10.4723C19.9375 12.6766 18.1995 14.4146 15.9952 15.2303C14.8392 15.658 14.8392 17.2931 15.9952 17.7209C18.1995 18.5366 19.9375 20.2746 20.7532 22.4789C21.181 23.635 22.8161 23.635 23.2438 22.4789C24.0595 20.2746 25.7975 18.5366 28.0019 17.7209C29.1579 17.2931 29.1579 15.658 28.0019 15.2303C25.7975 14.4146 24.0595 12.6766 23.2438 10.4723Z" fill="#F59D36" stroke="url(#paint1_linear_4440_6543)" stroke-width="0.95"/>
<ellipse cx="21.9985" cy="16.9756" rx="3" ry="3.5" fill="url(#paint2_linear_4440_6543)"/>
<ellipse cx="20.9985" cy="15.9756" rx="1" ry="1.5" fill="white"/>
<defs>
<linearGradient id="paint0_linear_4440_6543" x1="21.8131" y1="1.45185" x2="21.8131" y2="27.5447" gradientUnits="userSpaceOnUse">
<stop stop-color="#FFE8A3"/>
<stop offset="0.631868" stop-color="#F5B652"/>
<stop offset="1" stop-color="#E56C51"/>
</linearGradient>
<linearGradient id="paint1_linear_4440_6543" x1="13.9964" y1="8.50076" x2="21.9985" y2="24.4756" gradientUnits="userSpaceOnUse">
<stop stop-color="#F3752E"/>
<stop offset="1" stop-color="#BD23D6"/>
</linearGradient>
<linearGradient id="paint2_linear_4440_6543" x1="18.9961" y1="13.5004" x2="21.3638" y2="20.6848" gradientUnits="userSpaceOnUse">
<stop stop-color="#F3752E"/>
<stop offset="1" stop-color="#BD23D6"/>
</linearGradient>
</defs>
</svg>
