<svg width="42" height="42" viewBox="0 0 42 42" fill="none" xmlns="http://www.w3.org/2000/svg">
<circle cx="21" cy="21" r="20.5" stroke="white" stroke-opacity="0.4"/>
<path d="M27.2222 13.0005H14.7778C13.7959 13.0005 13 13.7964 13 14.7783V27.2227C13 28.2045 13.7959 29.0005 14.7778 29.0005H27.2222C28.2041 29.0005 29 28.2045 29 27.2227V14.7783C29 13.7964 28.2041 13.0005 27.2222 13.0005Z" stroke="white" stroke-linecap="round" stroke-linejoin="round"/>
<path d="M18.5 20.0005C19.3284 20.0005 20 19.3289 20 18.5005C20 17.6721 19.3284 17.0005 18.5 17.0005C17.6716 17.0005 17 17.6721 17 18.5005C17 19.3289 17.6716 20.0005 18.5 20.0005Z" stroke="white" stroke-linecap="round" stroke-linejoin="round"/>
<path d="M29 23.4171L26.3255 20.5454C26.0004 20.1965 25.5596 20.0005 25.1 20.0005C24.6404 20.0005 24.1996 20.1965 23.8745 20.5454L16 29.0005" stroke="white" stroke-linecap="round" stroke-linejoin="round"/>
</svg>
