<svg width="22" height="23" viewBox="0 0 22 23" fill="none" xmlns="http://www.w3.org/2000/svg">
<path d="M5.82995 4.64972L5.02559 11.1497C4.99704 11.2515 4.99231 11.3586 5.01176 11.4626C5.03121 11.5666 5.07432 11.6646 5.1377 11.749C5.20108 11.8333 5.28301 11.9017 5.37703 11.9487C5.47106 11.9957 5.57463 12.0202 5.6796 12.02H9.57581C9.63167 12.02 9.6868 12.0327 9.73711 12.0572C9.78742 12.0817 9.83161 12.1172 9.86638 12.1613C9.90116 12.2054 9.92562 12.2568 9.93795 12.3117C9.95028 12.3666 9.95016 12.4236 9.9376 12.4785L9.76791 13.2188C9.61247 13.8978 9.56258 14.5975 9.61993 15.2919L9.65116 15.6693C9.68461 16.0741 9.85933 16.4538 10.1443 16.7411C10.405 17.0039 10.7585 17.1516 11.1272 17.1516H11.2086C11.4316 17.1516 11.6369 17.0298 11.7449 16.8335L12.6473 15.1965C13.0519 14.4623 13.6549 13.859 14.3863 13.4569L16.6464 12.215C16.7535 12.1561 16.8429 12.0691 16.9051 11.9633C16.9674 11.8574 17.0001 11.7366 17 11.6136V4.83582C17 4.65436 16.9285 4.48033 16.8012 4.35201C16.6739 4.2237 16.5012 4.15161 16.3212 4.15161H6.48328C6.33548 4.15166 6.19173 4.20032 6.07387 4.29023C5.95602 4.38013 5.87015 4.50635 5.82995 4.64972Z" stroke="black" stroke-opacity="0.6" stroke-linecap="round" stroke-linejoin="round"/>
</svg>
