<svg width="272" height="153" viewBox="0 0 272 153" fill="none" xmlns="http://www.w3.org/2000/svg">
<path d="M202.509 59.836C194.741 60.4635 186.966 61.8289 178.984 63.8011C175.421 64.6838 171.685 62.5323 170.953 58.9395C170.463 56.5259 171.45 54.402 172.949 52.609C173.888 51.485 175.027 50.492 176.132 49.6369C187.207 41.0446 200.824 37.2311 214.558 35.6037C215.67 35.4727 216.781 35.3554 217.893 35.2589C217.907 35.2589 217.914 35.2382 217.9 35.2313C196.923 17.2536 171.105 4.76509 142.656 0V125.416C142.656 140.649 155.023 153 170.276 153H265.04C268.983 153 272.138 149.718 271.959 145.787C271.172 128.692 267.623 112.321 261.733 97.1085C252.404 73.0003 228.306 57.7603 202.509 59.836ZM239.547 114.99C236.129 120.368 231.986 125.292 227.284 129.595C226.96 129.891 226.623 130.202 226.275 130.525C221.65 134.804 214.965 140.987 208.544 138.325C205.146 136.919 204.504 133.195 206.003 130.119C206.73 128.635 207.793 127.345 208.845 126.067C208.952 125.937 209.059 125.808 209.165 125.678C212.41 121.713 215.331 117.472 217.872 113.024C218.489 111.943 219.051 110.79 219.618 109.626C220.396 108.027 221.185 106.409 222.14 104.928C222.996 103.598 223.99 102.377 225.226 101.391C228.996 98.3842 234.216 98.4808 237.91 101.577C241.902 104.922 242.295 110.673 239.547 114.997V114.99Z" fill="#1498AA"/>
<path d="M202.509 59.836C194.741 60.4635 186.966 61.8289 178.984 63.8011C175.421 64.6838 171.685 62.5323 170.953 58.9395C170.463 56.5259 171.45 54.402 172.949 52.609C173.888 51.485 175.027 50.492 176.132 49.6369C187.207 41.0446 200.824 37.2311 214.558 35.6037C215.67 35.4727 216.781 35.3554 217.893 35.2589C217.907 35.2589 217.914 35.2382 217.9 35.2313C196.923 17.2536 171.105 4.76509 142.656 0V125.416C142.656 140.649 155.023 153 170.276 153H265.04C268.983 153 272.138 149.718 271.959 145.787C271.172 128.692 267.623 112.321 261.733 97.1085C252.404 73.0003 228.306 57.7603 202.509 59.836ZM239.547 114.99C236.129 120.368 231.986 125.292 227.284 129.595C226.96 129.891 226.623 130.202 226.275 130.525C221.65 134.804 214.965 140.987 208.544 138.325C205.146 136.919 204.504 133.195 206.003 130.119C206.73 128.635 207.793 127.345 208.845 126.067C208.952 125.937 209.059 125.808 209.165 125.678C212.41 121.713 215.331 117.472 217.872 113.024C218.489 111.943 219.051 110.79 219.618 109.626C220.396 108.027 221.185 106.409 222.14 104.928C222.996 103.598 223.99 102.377 225.226 101.391C228.996 98.3842 234.216 98.4808 237.91 101.577C241.902 104.922 242.295 110.673 239.547 114.997V114.99Z" stroke="#1498AA" style="mix-blend-mode:plus-lighter"/>
<path d="M7.68871 149.045H51.1151C45.6825 143.956 40.9911 138.126 37.5575 131.32C36.932 130.074 36.3269 128.682 35.9597 127.263C35.3342 124.854 35.3818 122.354 37.1088 120.291C39.3389 117.625 43.3164 117.418 45.9885 119.619C68.5074 138.133 91.8762 148.449 127.096 149.052H128.218V32.7145C128.218 12.6014 107.766 -0.934189 89.8228 7.47106C39.2641 31.1636 3.5752 82.1005 0.889526 141.81C0.712747 145.756 3.81317 149.052 7.68871 149.052V149.045ZM92.9097 56.8224C91.8354 58.6226 90.326 59.9519 88.633 61.0666C87.1775 62.0174 85.5861 62.8069 84.0144 63.5866C82.8623 64.1582 81.7206 64.7245 80.6507 65.3454C76.2653 67.8933 72.0838 70.815 68.1742 74.076C68.0465 74.1825 67.9188 74.2895 67.791 74.3965C66.531 75.452 65.2586 76.5179 63.7956 77.2471C60.7631 78.7564 57.0916 78.1056 55.7045 74.6992C53.0893 68.2666 59.1719 61.5711 63.3849 56.9335C63.7065 56.5795 64.0172 56.2375 64.3123 55.9085C68.555 51.1866 73.4028 47.0394 78.713 43.6122C83.3976 40.5866 89.7684 41.3621 92.8485 46.5409C94.7182 49.6911 94.793 53.6861 92.9165 56.8294L92.9097 56.8224Z" fill="#D04376"/>
<path d="M7.68871 149.045H51.1151C45.6825 143.956 40.9911 138.126 37.5575 131.32C36.932 130.074 36.3269 128.682 35.9597 127.263C35.3342 124.854 35.3818 122.354 37.1088 120.291C39.3389 117.625 43.3164 117.418 45.9885 119.619C68.5074 138.133 91.8762 148.449 127.096 149.052H128.218V32.7145C128.218 12.6014 107.766 -0.934189 89.8228 7.47106C39.2641 31.1636 3.5752 82.1005 0.889526 141.81C0.712747 145.756 3.81317 149.052 7.68871 149.052V149.045ZM92.9097 56.8224C91.8354 58.6226 90.326 59.9519 88.633 61.0666C87.1775 62.0174 85.5861 62.8069 84.0144 63.5866C82.8623 64.1582 81.7206 64.7245 80.6507 65.3454C76.2653 67.8933 72.0838 70.815 68.1742 74.076C68.0465 74.1825 67.9188 74.2895 67.791 74.3965C66.531 75.452 65.2586 76.5179 63.7956 77.2471C60.7631 78.7564 57.0916 78.1056 55.7045 74.6992C53.0893 68.2666 59.1719 61.5711 63.3849 56.9335C63.7065 56.5795 64.0172 56.2375 64.3123 55.9085C68.555 51.1866 73.4028 47.0394 78.713 43.6122C83.3976 40.5866 89.7684 41.3621 92.8485 46.5409C94.7182 49.6911 94.793 53.6861 92.9165 56.8294L92.9097 56.8224Z" stroke="#D04376" style="mix-blend-mode:screen"/>
</svg>
