<svg width="40" height="40" viewBox="0 0 40 40" fill="none" xmlns="http://www.w3.org/2000/svg">
<circle cx="20" cy="20" r="20" fill="#4D3B7C" fill-opacity="0.8"/>
<path fill-rule="evenodd" clip-rule="evenodd" d="M17 7C16.3096 7 15.75 7.55964 15.75 8.25C15.75 8.94036 16.3096 9.5 17 9.5H18.75V10.3202C13.2634 10.9408 9 15.5975 9 21.25C9 27.3251 13.9249 32.25 20 32.25C26.0751 32.25 31 27.3251 31 21.25C31 15.5975 26.7366 10.9408 21.25 10.3202V9.5H23C23.6904 9.5 24.25 8.94036 24.25 8.25C24.25 7.55964 23.6904 7 23 7H20H17ZM28.5 21.25C28.5 25.9444 24.6944 29.75 20 29.75C15.3056 29.75 11.5 25.9444 11.5 21.25C11.5 16.5556 15.3056 12.75 20 12.75C24.6944 12.75 28.5 16.5556 28.5 21.25ZM19.25 20.25C18.6977 20.6642 18.5858 21.4477 19 22C19.4142 22.5523 20.1977 22.6642 20.75 22.25L24.75 19.25C25.3023 18.8358 25.4142 18.0523 25 17.5C24.5858 16.9477 23.8023 16.8358 23.25 17.25L19.25 20.25Z" fill="white" fill-opacity="0.4"/>
</svg>
