<svg width="36" height="36" viewBox="0 0 36 36" fill="none" xmlns="http://www.w3.org/2000/svg">
<rect width="36" height="36" rx="18" fill="black" fill-opacity="0.1"/>
<path fill-rule="evenodd" clip-rule="evenodd" d="M27.3559 18.6565H12.7464L11.6267 24.4038C11.5503 24.796 11.9421 25.115 12.3107 24.9605L27.3559 18.6565ZM12.3107 11.352L27.3567 17.6565H12.7464L11.6267 11.9088C11.5503 11.5166 11.9421 11.1976 12.3107 11.352ZM27.8355 19.5398C29.0626 19.0256 29.0625 17.287 27.8355 16.7728L12.6971 10.4297C11.5914 9.96644 10.4159 10.9233 10.6451 12.1L11.8064 18.0607C11.8187 18.1238 11.8187 18.1888 11.8064 18.2519L10.6451 24.2125C10.4159 25.3893 11.5914 26.3462 12.6971 25.8828L27.8355 19.5398Z" fill="black" fill-opacity="0.2"/>
</svg>
