<svg width="22" height="23" viewBox="0 0 22 23" fill="none" xmlns="http://www.w3.org/2000/svg">
<path d="M16.1701 16.6535L16.9744 10.1535C17.003 10.0517 17.0077 9.94458 16.9882 9.8406C16.9688 9.73663 16.9257 9.63862 16.8623 9.55427C16.7989 9.46993 16.717 9.40155 16.623 9.35451C16.5289 9.30748 16.4254 9.28306 16.3204 9.28319H12.4242C12.3683 9.28319 12.3132 9.27049 12.2629 9.24603C12.2126 9.22157 12.1684 9.18599 12.1336 9.14193C12.0988 9.09787 12.0744 9.04647 12.062 8.99155C12.0497 8.93664 12.0498 8.87963 12.0624 8.82477L12.2321 8.08445C12.3875 7.40537 12.4374 6.70577 12.3801 6.0113L12.3488 5.63395C12.3154 5.22914 12.1407 4.84938 11.8557 4.56214C11.595 4.29934 11.2415 4.15167 10.8728 4.15161H10.7914C10.5684 4.15161 10.3631 4.2734 10.2551 4.46977L9.3527 6.10674C8.94813 6.84091 8.34506 7.44417 7.61365 7.84635L5.35365 9.08819C5.2465 9.14713 5.1571 9.23409 5.09486 9.33993C5.03263 9.44578 4.99986 9.56657 5 9.68961V16.4674C5 16.6489 5.07151 16.8229 5.19881 16.9512C5.32611 17.0795 5.49876 17.1516 5.67878 17.1516H15.5167C15.6645 17.1516 15.8083 17.1029 15.9261 17.013C16.044 16.9231 16.1298 16.7969 16.1701 16.6535Z" stroke="black" stroke-opacity="0.6" stroke-linecap="round" stroke-linejoin="round"/>
</svg>
