<svg width="24" height="24" viewBox="0 0 24 24" fill="none" xmlns="http://www.w3.org/2000/svg">
<path d="M0 12C0 5.37258 5.37258 0 12 0C18.6274 0 24 5.37258 24 12C24 18.6274 18.6274 24 12 24C5.37258 24 0 18.6274 0 12Z" fill="black" fill-opacity="0.4"/>
<path d="M10.3333 7H8C7.44771 7 7 7.44772 7 8V10.3333" stroke="white" stroke-linecap="round"/>
<path d="M17 10.3333L17 8C17 7.44771 16.5523 7 16 7L13.6667 7" stroke="white" stroke-linecap="round"/>
<path d="M13.6667 17L16 17C16.5523 17 17 16.5523 17 16L17 13.6667" stroke="white" stroke-linecap="round"/>
<path d="M7 13.6667L7 16C7 16.5523 7.44772 17 8 17L10.3333 17" stroke="white" stroke-linecap="round"/>
</svg>
