<svg width="40" height="40" viewBox="0 0 40 40" fill="none" xmlns="http://www.w3.org/2000/svg">
<circle cx="20" cy="20" r="20" fill="#4D3B7C" fill-opacity="0.8"/>
<mask id="path-2-outside-1_3534_4342" maskUnits="userSpaceOnUse" x="6" y="8" width="28" height="25" fill="black">
<rect fill="white" x="6" y="8" width="28" height="25"/>
<path fill-rule="evenodd" clip-rule="evenodd" d="M22.073 26.8581C27.1571 26.153 31 22.9029 31 19C31 14.5817 26.0751 11 20 11C13.9249 11 9 14.5817 9 19C9 23.0504 13.1389 26.3978 18.5086 26.9271L22.3425 30.2648L22.073 26.8581Z"/>
</mask>
<path d="M22.073 26.8581L21.7296 24.3819C20.4186 24.5637 19.4764 25.7358 19.5808 27.0553L22.073 26.8581ZM18.5086 26.9271L20.1501 25.0415C19.7586 24.7006 19.2705 24.4901 18.7539 24.4392L18.5086 26.9271ZM22.3425 30.2648L20.701 32.1504C21.467 32.8173 22.5604 32.9545 23.4674 32.4975C24.3744 32.0405 24.9148 31.0802 24.8347 30.0677L22.3425 30.2648ZM28.5 19C28.5 21.0937 26.2295 23.7577 21.7296 24.3819L22.4165 29.3344C28.0847 28.5483 33.5 24.7121 33.5 19H28.5ZM20 13.5C22.5666 13.5 24.7886 14.2602 26.3077 15.365C27.8293 16.4716 28.5 17.7878 28.5 19H33.5C33.5 15.794 31.7082 13.1101 29.2486 11.3213C26.7865 9.5307 23.5086 8.5 20 8.5V13.5ZM11.5 19C11.5 17.7878 12.1707 16.4716 13.6923 15.365C15.2114 14.2602 17.4334 13.5 20 13.5V8.5C16.4914 8.5 13.2135 9.5307 10.7514 11.3213C8.29176 13.1101 6.5 15.794 6.5 19H11.5ZM18.7539 24.4392C13.9698 23.9675 11.5 21.1703 11.5 19H6.5C6.5 24.9305 12.308 28.828 18.2633 29.415L18.7539 24.4392ZM16.8671 28.8127L20.701 32.1504L23.9841 28.3793L20.1501 25.0415L16.8671 28.8127ZM24.8347 30.0677L24.5652 26.661L19.5808 27.0553L19.8503 30.462L24.8347 30.0677Z" fill="white" fill-opacity="0.4" mask="url(#path-2-outside-1_3534_4342)"/>
<circle cx="17" cy="19" r="2" fill="white" fill-opacity="0.4"/>
<circle cx="23" cy="19" r="2" fill="white" fill-opacity="0.4"/>
</svg>
