<svg width="26" height="26" viewBox="0 0 26 26" fill="none" xmlns="http://www.w3.org/2000/svg">
<path d="M21.5 18C21.5 18.3978 21.342 18.7794 21.0607 19.0607C20.7794 19.342 20.3978 19.5 20 19.5H6.5C6.10218 19.5 5.72064 19.342 5.43934 19.0607C5.15804 18.7794 5 18.3978 5 18V9.75C5 9.35218 5.15804 8.97064 5.43934 8.68934C5.72064 8.40804 6.10218 8.25 6.5 8.25H9.5L11 6H15.5L17 8.25H20C20.3978 8.25 20.7794 8.40804 21.0607 8.68934C21.342 8.97064 21.5 9.35218 21.5 9.75V18Z" stroke="black" stroke-linecap="round" stroke-linejoin="round"/>
<path d="M13.25 16.5C14.9069 16.5 16.25 15.1569 16.25 13.5C16.25 11.8431 14.9069 10.5 13.25 10.5C11.5931 10.5 10.25 11.8431 10.25 13.5C10.25 15.1569 11.5931 16.5 13.25 16.5Z" stroke="black" stroke-linecap="round" stroke-linejoin="round"/>
</svg>
