<svg width="30" height="30" viewBox="0 0 30 30" fill="none" xmlns="http://www.w3.org/2000/svg">
<path d="M1.55184 29.9986H11.453C10.2144 28.9392 9.14473 27.7257 8.36188 26.3089C8.21926 26.0495 8.08129 25.7598 7.99758 25.4644C7.85496 24.9628 7.86581 24.4425 8.25956 24.013C8.76803 23.4581 9.6749 23.4149 10.2841 23.8732C15.4184 27.7271 20.7464 29.8746 28.7765 30H29.0323V5.78262C29.0323 1.59577 24.3693 -1.22188 20.2783 0.527806C8.75098 5.45978 0.613971 16.0631 0.00164197 28.4924C-0.0386633 29.314 0.668229 30 1.55184 30V29.9986ZM20.9821 10.8011C20.7371 11.1758 20.393 11.4525 20.007 11.6845C19.4319 12.0276 18.7637 12.2697 18.1871 12.5752C17.1872 13.1056 16.2338 13.7138 15.3424 14.3927C15.0262 14.6334 14.7115 14.8856 14.3441 15.0528C13.6527 15.367 12.8156 15.2315 12.4994 14.5224C11.8576 13.0811 13.5132 11.5765 14.4619 10.6108C15.4292 9.62788 16.5345 8.76457 17.7452 8.05115C18.8133 7.42132 20.2659 7.58274 20.9681 8.6608C21.3944 9.31657 21.4115 10.1482 20.9836 10.8025L20.9821 10.8011Z" fill="white"/>
</svg>
