<svg width="44" height="44" viewBox="0 0 44 44" fill="none" xmlns="http://www.w3.org/2000/svg">
<circle cx="22" cy="22" r="21.5" fill="black" stroke="black"/>
<path d="M28.2222 14H15.7778C14.7959 14 14 14.7959 14 15.7778V28.2222C14 29.2041 14.7959 30 15.7778 30H28.2222C29.2041 30 30 29.2041 30 28.2222V15.7778C30 14.7959 29.2041 14 28.2222 14Z" stroke="#A46FF3" stroke-width="2" stroke-linecap="round" stroke-linejoin="round"/>
<path d="M19.5 21C20.3284 21 21 20.3284 21 19.5C21 18.6716 20.3284 18 19.5 18C18.6716 18 18 18.6716 18 19.5C18 20.3284 18.6716 21 19.5 21Z" stroke="#A46FF3" stroke-width="2" stroke-linecap="round" stroke-linejoin="round"/>
<path d="M30 24.4166L27.3255 21.5449C27.0004 21.196 26.5596 21 26.1 21C25.6404 21 25.1996 21.196 24.8745 21.5449L17 30" stroke="#A46FF3" stroke-width="2" stroke-linecap="round" stroke-linejoin="round"/>
</svg>
