<svg width="24" height="24" viewBox="0 0 24 24" fill="none" xmlns="http://www.w3.org/2000/svg">
<path d="M17.4444 5H6.55556C5.69645 5 5 5.69645 5 6.55556V17.4444C5 18.3036 5.69645 19 6.55556 19H17.4444C18.3036 19 19 18.3036 19 17.4444V6.55556C19 5.69645 18.3036 5 17.4444 5Z" stroke="white" stroke-width="2" stroke-linecap="round" stroke-linejoin="round"/>
<path d="M9.6664 11.2224C10.5255 11.2224 11.222 10.526 11.222 9.66688C11.222 8.80777 10.5255 8.11133 9.6664 8.11133C8.80729 8.11133 8.11084 8.80777 8.11084 9.66688C8.11084 10.526 8.80729 11.2224 9.6664 11.2224Z" stroke="white" stroke-width="2" stroke-linecap="round" stroke-linejoin="round"/>
<path d="M18.9999 14.3322L16.5997 11.932C16.308 11.6404 15.9124 11.4766 15.4999 11.4766C15.0874 11.4766 14.6919 11.6404 14.4001 11.932L7.33325 18.9989" stroke="white" stroke-width="2" stroke-linecap="round" stroke-linejoin="round"/>
</svg>
