<svg width="318" height="400" viewBox="0 0 318 400" fill="none" xmlns="http://www.w3.org/2000/svg">
<path d="M136.58 156.434C116.388 158.075 96.1773 161.644 75.4285 166.8C66.1669 169.108 56.4566 163.483 54.5541 154.09C53.2797 147.78 55.8464 142.227 59.7413 137.54C62.1823 134.601 65.1439 132.005 68.0157 129.77C96.8055 107.306 132.2 97.3363 167.901 93.0815C170.79 92.739 173.68 92.4325 176.57 92.1801C176.606 92.1801 176.624 92.126 176.588 92.108C122.059 45.1075 54.949 12.4577 -19 0V327.886C-19 367.711 13.1463 400 52.7951 400H299.124C309.373 400 317.575 391.418 317.109 381.142C315.063 336.449 305.837 293.649 290.527 253.878C266.278 190.851 203.637 151.007 136.58 156.434ZM232.857 300.626C223.973 314.689 213.203 327.561 200.98 338.811C188.954 349.863 170.216 369.117 152.267 361.635C143.436 357.957 141.767 348.222 145.662 340.181C147.744 335.908 150.885 332.249 153.883 328.571C162.319 318.204 169.911 307.117 176.516 295.488C180.321 288.782 183.319 281.011 187.608 274.323C189.834 270.843 192.419 267.652 195.631 265.074C205.431 257.214 219.001 257.466 228.603 265.561C238.978 274.305 240.001 289.341 232.857 300.645V300.626Z" fill="#4D3B7C" fill-opacity="0.2"/>
</svg>
