<svg width="14" height="14" viewBox="0 0 14 14" fill="none" xmlns="http://www.w3.org/2000/svg">
<path fill-rule="evenodd" clip-rule="evenodd" d="M2.83338 0.77832C2.83338 0.502178 2.60952 0.27832 2.33338 0.27832C2.05724 0.27832 1.83338 0.502178 1.83338 0.77832V3.88943C1.83338 4.16557 2.05724 4.38943 2.33338 4.38943H5.44449C5.72063 4.38943 5.94449 4.16557 5.94449 3.88943C5.94449 3.61329 5.72063 3.38943 5.44449 3.38943H3.35625C3.99296 2.6818 4.81758 2.16629 5.73677 1.90475C6.7457 1.61768 7.81884 1.65073 8.80819 1.99936C9.79753 2.34798 10.6543 2.995 11.2604 3.85117C11.8665 4.70734 12.192 5.73047 12.192 6.77944C12.192 7.05558 12.4158 7.27944 12.692 7.27944C12.9681 7.27944 13.192 7.05558 13.192 6.77944C13.192 5.5235 12.8023 4.29849 12.0766 3.27339C11.3509 2.2483 10.3251 1.47362 9.14054 1.0562C7.95599 0.638789 6.6711 0.599209 5.4631 0.942924C4.46584 1.22668 3.56154 1.76012 2.83338 2.48813V0.77832ZM8.78437 12.9604C7.57637 13.3041 6.29148 13.2645 5.10693 12.8471C3.92238 12.4297 2.89652 11.655 2.17087 10.6299C1.44521 9.60483 1.05551 8.37983 1.05551 7.12388C1.05551 6.84774 1.27937 6.62388 1.55551 6.62388C1.83165 6.62388 2.05551 6.84774 2.05551 7.12388C2.05551 8.17285 2.38099 9.19598 2.98706 10.0521C3.59314 10.9083 4.44993 11.5553 5.43928 11.904C6.42862 12.2526 7.50177 12.2856 8.5107 11.9986C9.42989 11.737 10.2545 11.2215 10.8912 10.5139H8.80298C8.52683 10.5139 8.30298 10.29 8.30298 10.0139C8.30298 9.73775 8.52683 9.51389 8.80298 9.51389H11.9141C12.1902 9.51389 12.4141 9.73775 12.4141 10.0139V13.125C12.4141 13.4011 12.1902 13.625 11.9141 13.625C11.6379 13.625 11.4141 13.4011 11.4141 13.125V11.4152C10.6859 12.1432 9.78163 12.6766 8.78437 12.9604Z" fill="#A46FF3"/>
</svg>
