<svg width="274" height="201" viewBox="0 0 274 201" fill="none" xmlns="http://www.w3.org/2000/svg">
<g opacity="0.3" filter="url(#filter0_f_2975_4988)">
<path d="M202.509 85.836C194.741 86.4635 186.966 87.8289 178.984 89.8011C175.421 90.6838 171.685 88.5323 170.953 84.9395C170.463 82.5259 171.45 80.402 172.949 78.609C173.888 77.485 175.027 76.492 176.132 75.6369C187.208 67.0446 200.824 63.2311 214.558 61.6037C215.67 61.4727 216.782 61.3554 217.893 61.2589C217.907 61.2589 217.914 61.2382 217.9 61.2313C196.923 43.2536 171.105 30.7651 142.657 26V151.416C142.657 166.649 155.024 179 170.277 179H265.04C268.983 179 272.139 175.718 271.959 171.787C271.172 154.692 267.623 138.321 261.733 123.108C252.404 99.0003 228.306 83.7603 202.509 85.836ZM239.547 140.99C236.129 146.368 231.986 151.292 227.284 155.595C222.658 159.822 215.449 167.187 208.544 164.325C205.147 162.919 204.505 159.195 206.003 156.119C206.804 154.485 208.012 153.085 209.165 151.678C212.411 147.713 215.332 143.472 217.873 139.024C219.336 136.459 220.49 133.487 222.14 130.928C222.996 129.598 223.99 128.377 225.226 127.391C228.996 124.384 234.217 124.481 237.911 127.577C241.902 130.922 242.295 136.673 239.547 140.997V140.99Z" fill="#1498AA"/>
</g>
<g filter="url(#filter1_f_2975_4988)">
<rect x="128" y="8" width="72" height="189" fill="url(#paint0_linear_2975_4988)"/>
</g>
<path d="M7.68895 175.045H51.1153C45.6828 169.956 40.9913 164.126 37.5578 157.32C36.9322 156.074 36.3271 154.682 35.96 153.263C35.3344 150.854 35.382 148.354 37.109 146.291C39.3391 143.625 43.3167 143.418 45.9887 145.619C68.5076 164.133 91.8764 174.449 127.096 175.052H128.218V58.7145C128.218 38.6014 107.766 25.0658 89.8231 33.4711C39.2644 57.1636 3.57545 108.1 0.88977 167.81C0.712991 171.756 3.81342 175.052 7.68895 175.052V175.045ZM92.9099 82.8224C91.8356 84.6226 90.3262 85.9519 88.6332 87.0666C87.1777 88.0174 85.5864 88.8069 84.0147 89.5866C82.8625 90.1582 81.7208 90.7245 80.651 91.3454C76.2655 93.8933 72.084 96.815 68.1745 100.076C68.0467 100.183 67.919 100.29 67.7912 100.397C66.5312 101.452 65.2588 102.518 63.7958 103.247C60.7634 104.756 57.0918 104.106 55.7048 100.699C53.0895 94.2666 59.1721 87.5711 63.3851 82.9335C63.7067 82.5795 64.0174 82.2375 64.3125 81.9085C68.5552 77.1866 73.4031 73.0394 78.7132 69.6122C83.3979 66.5866 89.7687 67.3621 92.8487 72.5409C94.7185 75.6911 94.7933 79.6861 92.9167 82.8294L92.9099 82.8224Z" fill="#D04376"/>
<path d="M7.68895 175.045H51.1153C45.6828 169.956 40.9913 164.126 37.5578 157.32C36.9322 156.074 36.3271 154.682 35.96 153.263C35.3344 150.854 35.382 148.354 37.109 146.291C39.3391 143.625 43.3167 143.418 45.9887 145.619C68.5076 164.133 91.8764 174.449 127.096 175.052H128.218V58.7145C128.218 38.6014 107.766 25.0658 89.8231 33.4711C39.2644 57.1636 3.57545 108.1 0.88977 167.81C0.712991 171.756 3.81342 175.052 7.68895 175.052V175.045ZM92.9099 82.8224C91.8356 84.6226 90.3262 85.9519 88.6332 87.0666C87.1777 88.0174 85.5864 88.8069 84.0147 89.5866C82.8625 90.1582 81.7208 90.7245 80.651 91.3454C76.2655 93.8933 72.084 96.815 68.1745 100.076C68.0467 100.183 67.919 100.29 67.7912 100.397C66.5312 101.452 65.2588 102.518 63.7958 103.247C60.7634 104.756 57.0918 104.106 55.7048 100.699C53.0895 94.2666 59.1721 87.5711 63.3851 82.9335C63.7067 82.5795 64.0174 82.2375 64.3125 81.9085C68.5552 77.1866 73.4031 73.0394 78.7132 69.6122C83.3979 66.5866 89.7687 67.3621 92.8487 72.5409C94.7185 75.6911 94.7933 79.6861 92.9167 82.8294L92.9099 82.8224Z" stroke="#D04376" style="mix-blend-mode:screen"/>
<g filter="url(#filter2_d_2975_4988)">
<path d="M143.43 47L148.822 31.4453H152.969L158.34 47H154.881L153.71 43.4121H148.081L146.91 47H143.43ZM152.894 40.8984L150.949 34.9473H150.842L148.897 40.8984H152.894ZM163.417 47H160.237V35.334H163.266V37.375H163.395C163.667 36.6875 164.108 36.1504 164.717 35.7637C165.325 35.377 166.052 35.1836 166.897 35.1836C167.707 35.1836 168.415 35.359 169.024 35.71C169.633 36.0609 170.102 36.5693 170.431 37.2354C170.761 37.8942 170.922 38.6712 170.915 39.5664V47H167.757V40.125C167.757 39.4089 167.57 38.8467 167.198 38.4385C166.826 38.0303 166.31 37.8262 165.651 37.8262C164.971 37.8262 164.427 38.041 164.018 38.4707C163.617 38.9004 163.417 39.4948 163.417 40.2539V47ZM175.025 51.3828C174.359 51.3828 173.822 51.3613 173.414 51.3184V48.8477C173.958 48.8763 174.388 48.8906 174.703 48.8906C174.953 48.8906 175.161 48.8691 175.326 48.8262C175.498 48.7832 175.659 48.6829 175.809 48.5254C175.967 48.3678 176.106 48.1315 176.228 47.8164L176.421 47.3223L172.232 35.334H175.562L178.011 43.9277H178.14L180.611 35.334H183.984L179.429 48.2891C179.078 49.2845 178.552 50.0472 177.85 50.5771C177.148 51.1143 176.207 51.3828 175.025 51.3828ZM191.875 37.7188H189.684V43.4121C189.684 43.8418 189.777 44.1426 189.963 44.3145C190.149 44.4863 190.422 44.5794 190.78 44.5938C191.238 44.5938 191.661 44.5723 192.047 44.5293V47.043C191.668 47.1146 191.102 47.1504 190.35 47.1504C189.154 47.1504 188.212 46.8747 187.525 46.3232C186.837 45.7718 186.497 44.9518 186.504 43.8633V37.7188H184.893V35.334H186.504V32.541H189.684V35.334H191.875V37.7188ZM197.511 47H194.331V31.4453H197.425V37.375H197.554C197.826 36.6803 198.259 36.1432 198.854 35.7637C199.448 35.377 200.175 35.1836 201.034 35.1836C201.844 35.1836 202.553 35.359 203.161 35.71C203.77 36.0609 204.239 36.5658 204.569 37.2246C204.905 37.8835 205.073 38.6641 205.073 39.5664V47H201.894V40.125C201.894 39.4017 201.708 38.8395 201.335 38.4385C200.97 38.0303 200.454 37.8262 199.788 37.8262C199.344 37.8262 198.95 37.9229 198.607 38.1162C198.263 38.3024 197.994 38.5781 197.801 38.9434C197.608 39.3086 197.511 39.7454 197.511 40.2539V47ZM207.723 35.334H210.902V47H207.723V35.334ZM209.312 33.8086C208.997 33.8086 208.704 33.737 208.432 33.5938C208.167 33.4434 207.955 33.2464 207.798 33.0029C207.647 32.7523 207.572 32.4837 207.572 32.1973C207.572 31.9036 207.647 31.6315 207.798 31.3809C207.955 31.1302 208.167 30.9333 208.432 30.79C208.704 30.6396 208.997 30.5645 209.312 30.5645C209.62 30.5645 209.907 30.6396 210.172 30.79C210.437 30.9333 210.645 31.1302 210.795 31.3809C210.952 31.6315 211.031 31.9036 211.031 32.1973C211.031 32.4837 210.952 32.7523 210.795 33.0029C210.645 33.2464 210.437 33.4434 210.172 33.5938C209.907 33.737 209.62 33.8086 209.312 33.8086ZM216.753 47H213.573V35.334H216.602V37.375H216.731C217.003 36.6875 217.444 36.1504 218.053 35.7637C218.661 35.377 219.388 35.1836 220.233 35.1836C221.042 35.1836 221.751 35.359 222.36 35.71C222.969 36.0609 223.438 36.5693 223.767 37.2354C224.097 37.8942 224.258 38.6712 224.251 39.5664V47H221.093V40.125C221.093 39.4089 220.906 38.8467 220.534 38.4385C220.162 38.0303 219.646 37.8262 218.987 37.8262C218.307 37.8262 217.762 38.041 217.354 38.4707C216.953 38.9004 216.753 39.4948 216.753 40.2539V47ZM232.164 51.6191C231.104 51.6191 230.18 51.4688 229.392 51.168C228.604 50.8672 227.985 50.4411 227.534 49.8896C227.09 49.3454 226.836 48.7044 226.771 47.9668H229.908C229.994 48.418 230.237 48.7546 230.638 48.9766C231.046 49.2057 231.576 49.3203 232.228 49.3203C233.009 49.3203 233.614 49.1377 234.044 48.7725C234.48 48.4144 234.699 47.8451 234.699 47.0645V44.9375H234.548C234.305 45.4746 233.904 45.9258 233.345 46.291C232.794 46.6491 232.085 46.8281 231.218 46.8281C230.316 46.8281 229.507 46.6169 228.791 46.1943C228.074 45.7646 227.509 45.1201 227.093 44.2607C226.678 43.4014 226.47 42.3451 226.47 41.0918C226.47 39.8171 226.682 38.7357 227.104 37.8477C227.527 36.9596 228.096 36.2936 228.812 35.8496C229.535 35.4056 230.338 35.1836 231.218 35.1836C232.099 35.1836 232.808 35.3877 233.345 35.7959C233.882 36.2041 234.283 36.7018 234.548 37.2891H234.677V35.334H237.836V47.1289C237.836 48.0957 237.596 48.9157 237.116 49.5889C236.636 50.262 235.97 50.7669 235.118 51.1035C234.266 51.4473 233.281 51.6191 232.164 51.6191ZM232.207 44.4434C232.994 44.4434 233.607 44.1533 234.044 43.5732C234.48 42.986 234.699 42.1732 234.699 41.1348C234.699 40.082 234.48 39.2513 234.044 38.6426C233.607 38.0267 232.994 37.7188 232.207 37.7188C231.419 37.7188 230.81 38.0303 230.38 38.6533C229.951 39.2692 229.736 40.0964 229.736 41.1348C229.736 42.1589 229.947 42.9681 230.37 43.5625C230.799 44.1497 231.412 44.4434 232.207 44.4434ZM152.754 66.8926C152.689 66.2767 152.421 65.7969 151.948 65.4531C151.476 65.1094 150.849 64.9375 150.068 64.9375C149.531 64.9375 149.069 65.0163 148.683 65.1738C148.303 65.3242 148.013 65.5355 147.812 65.8076C147.612 66.0798 147.512 66.3913 147.512 66.7422C147.512 67.2435 147.737 67.6445 148.188 67.9453C148.64 68.2461 149.245 68.4824 150.004 68.6543L151.4 68.998C152.84 69.3203 153.975 69.8538 154.806 70.5986C155.644 71.3363 156.062 72.321 156.062 73.5527C156.062 74.5052 155.823 75.3324 155.343 76.0342C154.863 76.7288 154.172 77.266 153.27 77.6455C152.367 78.0251 151.293 78.2148 150.047 78.2148C148.786 78.2148 147.691 78.0215 146.76 77.6348C145.836 77.248 145.116 76.6787 144.601 75.9268C144.092 75.1676 143.824 74.2402 143.795 73.1445H146.932C146.982 73.9108 147.283 74.498 147.834 74.9062C148.393 75.3073 149.116 75.5078 150.004 75.5078C150.562 75.5078 151.053 75.4255 151.476 75.2607C151.898 75.096 152.224 74.8669 152.453 74.5732C152.682 74.2796 152.797 73.9395 152.797 73.5527C152.797 73.0514 152.578 72.654 152.142 72.3604C151.712 72.0667 151.042 71.8053 150.133 71.5762L148.436 71.168C145.614 70.4733 144.203 69.0625 144.203 66.9355C144.203 66.0046 144.454 65.1846 144.955 64.4756C145.464 63.7594 146.165 63.208 147.061 62.8213C147.956 62.4274 148.965 62.2305 150.09 62.2305C151.221 62.2305 152.22 62.4274 153.087 62.8213C153.953 63.2152 154.627 63.7666 155.106 64.4756C155.586 65.1774 155.833 65.9831 155.848 66.8926H152.754ZM158.304 66.334H161.483V78H158.304V66.334ZM159.893 64.8086C159.578 64.8086 159.285 64.737 159.012 64.5938C158.748 64.4434 158.536 64.2464 158.379 64.0029C158.228 63.7523 158.153 63.4837 158.153 63.1973C158.153 62.9036 158.228 62.6315 158.379 62.3809C158.536 62.1302 158.748 61.9333 159.012 61.79C159.285 61.6396 159.578 61.5645 159.893 61.5645C160.201 61.5645 160.488 61.6396 160.753 61.79C161.018 61.9333 161.225 62.1302 161.376 62.3809C161.533 62.6315 161.612 62.9036 161.612 63.1973C161.612 63.4837 161.533 63.7523 161.376 64.0029C161.225 64.2464 161.018 64.4434 160.753 64.5938C160.488 64.737 160.201 64.8086 159.893 64.8086ZM168.451 78.1934C167.548 78.1934 166.739 77.9606 166.023 77.4951C165.307 77.0225 164.741 76.335 164.326 75.4326C163.91 74.5231 163.703 73.4382 163.703 72.1777C163.703 70.8887 163.914 69.7965 164.337 68.9014C164.759 67.999 165.328 67.3223 166.045 66.8711C166.768 66.4128 167.57 66.1836 168.451 66.1836C169.332 66.1836 170.037 66.3877 170.567 66.7959C171.097 67.2041 171.494 67.7018 171.759 68.2891H171.867V62.4453H175.046V78H171.91V76.1309H171.759C171.487 76.7109 171.083 77.2015 170.546 77.6025C170.008 77.9964 169.31 78.1934 168.451 78.1934ZM169.439 75.6582C169.962 75.6582 170.409 75.515 170.782 75.2285C171.154 74.9349 171.437 74.5267 171.63 74.0039C171.831 73.474 171.931 72.8581 171.931 72.1562C171.931 71.0964 171.713 70.2585 171.276 69.6426C170.839 69.0267 170.227 68.7188 169.439 68.7188C168.651 68.7188 168.043 69.0303 167.613 69.6533C167.183 70.2764 166.968 71.1107 166.968 72.1562C166.968 73.2161 167.183 74.0648 167.613 74.7021C168.043 75.3395 168.651 75.6582 169.439 75.6582ZM183.088 78.2363C181.907 78.2363 180.883 77.9928 180.016 77.5059C179.157 77.0189 178.494 76.3242 178.029 75.4219C177.563 74.5124 177.33 73.4453 177.33 72.2207C177.33 71.0247 177.56 69.972 178.018 69.0625C178.483 68.1458 179.142 67.4368 179.995 66.9355C180.847 66.4342 181.835 66.1836 182.959 66.1836C184.005 66.1836 184.94 66.4056 185.763 66.8496C186.594 67.2865 187.246 67.9489 187.718 68.8369C188.198 69.7249 188.438 70.8099 188.438 72.0918V72.9941H180.467C180.467 73.5742 180.575 74.0791 180.789 74.5088C181.011 74.9385 181.323 75.2715 181.724 75.5078C182.132 75.737 182.608 75.8516 183.153 75.8516C183.676 75.8516 184.127 75.7477 184.506 75.54C184.886 75.3252 185.158 75.0352 185.323 74.6699H188.352C188.202 75.3861 187.894 76.0127 187.428 76.5498C186.963 77.0869 186.357 77.5023 185.613 77.7959C184.875 78.0895 184.034 78.2363 183.088 78.2363ZM185.43 70.9961C185.43 70.5306 185.326 70.1152 185.119 69.75C184.918 69.3776 184.635 69.0876 184.27 68.8799C183.905 68.6722 183.489 68.5684 183.024 68.5684C182.551 68.5684 182.121 68.6758 181.735 68.8906C181.355 69.1055 181.051 69.3991 180.822 69.7715C180.6 70.1439 180.482 70.5521 180.467 70.9961H185.43Z" fill="#D04376"/>
</g>
<defs>
<filter id="filter0_f_2975_4988" x="140.657" y="24" width="133.31" height="157" filterUnits="userSpaceOnUse" color-interpolation-filters="sRGB">
<feFlood flood-opacity="0" result="BackgroundImageFix"/>
<feBlend mode="normal" in="SourceGraphic" in2="BackgroundImageFix" result="shape"/>
<feGaussianBlur stdDeviation="1" result="effect1_foregroundBlur_2975_4988"/>
</filter>
<filter id="filter1_f_2975_4988" x="124" y="4" width="80" height="197" filterUnits="userSpaceOnUse" color-interpolation-filters="sRGB">
<feFlood flood-opacity="0" result="BackgroundImageFix"/>
<feBlend mode="normal" in="SourceGraphic" in2="BackgroundImageFix" result="shape"/>
<feGaussianBlur stdDeviation="2" result="effect1_foregroundBlur_2975_4988"/>
</filter>
<filter id="filter2_d_2975_4988" x="113.43" y="0.564453" width="154.406" height="107.672" filterUnits="userSpaceOnUse" color-interpolation-filters="sRGB">
<feFlood flood-opacity="0" result="BackgroundImageFix"/>
<feColorMatrix in="SourceAlpha" type="matrix" values="0 0 0 0 0 0 0 0 0 0 0 0 0 0 0 0 0 0 127 0" result="hardAlpha"/>
<feOffset/>
<feGaussianBlur stdDeviation="15"/>
<feComposite in2="hardAlpha" operator="out"/>
<feColorMatrix type="matrix" values="0 0 0 0 0.141176 0 0 0 0 0.12549 0 0 0 0 0.211765 0 0 0 1 0"/>
<feBlend mode="normal" in2="BackgroundImageFix" result="effect1_dropShadow_2975_4988"/>
<feBlend mode="normal" in="SourceGraphic" in2="effect1_dropShadow_2975_4988" result="shape"/>
</filter>
<linearGradient id="paint0_linear_2975_4988" x1="128" y1="143.265" x2="200" y2="143.265" gradientUnits="userSpaceOnUse">
<stop stop-color="#242036"/>
<stop offset="1" stop-color="#242036" stop-opacity="0"/>
</linearGradient>
</defs>
</svg>
