<svg width="40" height="40" viewBox="0 0 40 40" fill="none" xmlns="http://www.w3.org/2000/svg">
<circle cx="20" cy="20" r="20" fill="#4D3B7C" fill-opacity="0.8"/>
<mask id="path-2-outside-1_3534_4030" maskUnits="userSpaceOnUse" x="9" y="8" width="22" height="23" fill="black">
<rect fill="white" x="9" y="8" width="22" height="23"/>
<path d="M26.8934 27.3486L27.9659 18.8486C28.0039 18.7155 28.0103 18.5754 27.9843 18.4395C27.9584 18.3035 27.9009 18.1753 27.8164 18.065C27.7319 17.9547 27.6227 17.8653 27.4973 17.8038C27.3719 17.7423 27.2338 17.7104 27.0939 17.7105H21.8989C21.8244 17.7105 21.7509 17.6939 21.6838 17.6619C21.6168 17.6299 21.5579 17.5834 21.5115 17.5258C21.4651 17.4682 21.4325 17.401 21.4161 17.3292C21.3996 17.2573 21.3998 17.1828 21.4165 17.1111L21.6428 16.1429C21.85 15.2549 21.9166 14.3401 21.8401 13.4319L21.7985 12.9384C21.7539 12.4091 21.5209 11.9125 21.1409 11.5368C20.7934 11.1932 20.322 11.0001 19.8304 11H19.7218C19.4245 11 19.1508 11.1593 19.0068 11.4161L17.8036 13.5567C17.2642 14.5168 16.4601 15.3057 15.4849 15.8316L12.4715 17.4555C12.3287 17.5326 12.2095 17.6463 12.1265 17.7847C12.0435 17.9231 11.9998 18.0811 12 18.242V27.1053C12 27.3426 12.0954 27.5701 12.2651 27.7379C12.4348 27.9057 12.665 28 12.905 28H26.0223C26.2194 27.9999 26.411 27.9363 26.5682 27.8187C26.7253 27.7012 26.8398 27.5361 26.8934 27.3486Z"/>
</mask>
<path d="M26.8934 27.3486L29.2971 28.0359C29.3321 27.9132 29.3578 27.7881 29.3737 27.6616L26.8934 27.3486ZM27.9659 18.8486L25.5622 18.1614C25.5271 18.284 25.5015 18.4091 25.4855 18.5357L27.9659 18.8486ZM27.9843 18.4395L30.44 17.971L27.9843 18.4395ZM27.0939 17.7105V20.2105L27.0968 20.2105L27.0939 17.7105ZM21.8989 17.7105V15.2105H21.8989L21.8989 17.7105ZM21.4165 17.1111L18.9821 16.5421L18.982 16.5428L21.4165 17.1111ZM21.6428 16.1429L24.0772 16.7119L24.0774 16.7111L21.6428 16.1429ZM21.8401 13.4319L24.3313 13.2221L24.3312 13.2217L21.8401 13.4319ZM21.7985 12.9384L19.3073 13.1483L19.3073 13.1486L21.7985 12.9384ZM21.1409 11.5368L19.3831 13.3145L19.3833 13.3147L21.1409 11.5368ZM19.8304 11L19.8308 8.5H19.8304V11ZM19.0068 11.4161L21.1862 12.641L21.1878 12.6382L19.0068 11.4161ZM17.8036 13.5567L15.6243 12.3317L15.6241 12.3321L17.8036 13.5567ZM15.4849 15.8316L16.6709 18.0323L16.6715 18.032L15.4849 15.8316ZM12.4715 17.4555L11.2855 15.2548L11.2846 15.2553L12.4715 17.4555ZM12 18.242H14.5L14.5 18.239L12 18.242ZM12 27.1053H9.5H12ZM26.0223 28V30.5H26.023L26.0223 28ZM29.3737 27.6616L30.4462 19.1616L25.4855 18.5357L24.4131 27.0357L29.3737 27.6616ZM30.3696 19.5359C30.515 19.027 30.5393 18.4911 30.44 17.971L25.5286 18.9079C25.4813 18.6597 25.4928 18.4039 25.5622 18.1614L30.3696 19.5359ZM30.44 17.971C30.3408 17.4509 30.1213 16.9628 29.8009 16.5445L25.8319 19.5855C25.6805 19.3878 25.5759 19.156 25.5286 18.9079L30.44 17.971ZM29.8009 16.5445C29.4805 16.1264 29.0684 15.7899 28.5985 15.5594L26.3961 20.0482C26.177 19.9407 25.9833 19.783 25.8319 19.5855L29.8009 16.5445ZM28.5985 15.5594C28.1287 15.3289 27.6127 15.2099 27.0909 15.2105L27.0968 20.2105C26.8549 20.2108 26.6152 20.1557 26.3961 20.0482L28.5985 15.5594ZM27.0939 15.2105H21.8989V20.2105H27.0939V15.2105ZM21.8989 15.2105C22.1959 15.2105 22.4901 15.2767 22.7598 15.4053L20.6079 19.9185C21.0118 20.1111 21.453 20.2105 21.899 20.2105L21.8989 15.2105ZM22.7598 15.4053C23.0297 15.534 23.2692 15.7224 23.4592 15.9585L19.5638 19.0931C19.8465 19.4444 20.2039 19.7259 20.6079 19.9185L22.7598 15.4053ZM23.4592 15.9585C23.6493 16.1947 23.7846 16.4723 23.853 16.7712L18.9791 17.8871C19.0804 18.3296 19.281 18.7416 19.5638 19.0931L23.4592 15.9585ZM23.853 16.7712C23.9214 17.0701 23.9208 17.3808 23.8511 17.6794L18.982 16.5428C18.8788 16.9848 18.8778 17.4446 18.9791 17.8871L23.853 16.7712ZM23.8509 17.68L24.0772 16.7119L19.2084 15.574L18.9821 16.5421L23.8509 17.68ZM24.0774 16.7111C24.3441 15.5683 24.4297 14.3909 24.3313 13.2221L19.3489 13.6417C19.4034 14.2892 19.356 14.9415 19.2082 15.5747L24.0774 16.7111ZM24.3312 13.2217L24.2896 12.7283L19.3073 13.1486L19.3489 13.6421L24.3312 13.2217ZM24.2896 12.7286C24.1947 11.6021 23.6993 10.5506 22.8986 9.75898L19.3833 13.3147C19.3425 13.2743 19.313 13.216 19.3073 13.1483L24.2896 12.7286ZM22.8987 9.75917C22.0803 8.94986 20.9762 8.50017 19.8308 8.5L19.8301 13.5C19.6678 13.5 19.5065 13.4365 19.3831 13.3145L22.8987 9.75917ZM19.8304 8.5H19.7218V13.5H19.8304V8.5ZM19.7218 8.5C18.5317 8.5 17.4178 9.13775 16.8259 10.1939L21.1878 12.6382C20.8837 13.1808 20.3174 13.5 19.7218 13.5V8.5ZM16.8275 10.1911L15.6243 12.3317L19.9829 14.7817L21.1862 12.641L16.8275 10.1911ZM15.6241 12.3321C15.318 12.8768 14.8595 13.3285 14.2982 13.6312L16.6715 18.032C18.0607 17.2828 19.2103 16.1568 19.9831 14.7813L15.6241 12.3321ZM14.2988 13.6308L11.2855 15.2548L13.6576 19.6563L16.6709 18.0323L14.2988 13.6308ZM11.2846 15.2553C10.7487 15.5444 10.2978 15.973 9.98232 16.4992L14.2706 19.0703C14.1211 19.3196 13.9087 19.5208 13.6585 19.6558L11.2846 15.2553ZM9.98232 16.4992C9.66671 17.0256 9.49926 17.6288 9.5 18.245L14.5 18.239C14.5004 18.5334 14.4203 18.8207 14.2706 19.0703L9.98232 16.4992ZM9.5 18.242V27.1053H14.5V18.242H9.5ZM9.5 27.1053C9.5 28.0149 9.86578 28.8814 10.5075 29.5158L14.0227 25.9601C14.3249 26.2589 14.5 26.6702 14.5 27.1053H9.5ZM10.5075 29.5158C11.1482 30.1492 12.0112 30.5 12.905 30.5V25.5C13.3189 25.5 13.7214 25.6622 14.0227 25.9601L10.5075 29.5158ZM12.905 30.5H26.0223V25.5H12.905V30.5ZM26.023 30.5C26.7573 30.4998 27.4746 30.2628 28.0658 29.8205L25.0706 25.8169C25.3475 25.6098 25.6814 25.5001 26.0216 25.5L26.023 30.5ZM28.0658 29.8205C28.6547 29.3799 29.0913 28.7557 29.2971 28.0359L24.4897 26.6614C24.5883 26.3165 24.7959 26.0224 25.0706 25.8169L28.0658 29.8205Z" fill="white" fill-opacity="0.4" mask="url(#path-2-outside-1_3534_4030)"/>
</svg>
