<svg width="22" height="22" viewBox="0 0 22 22" fill="none" xmlns="http://www.w3.org/2000/svg">
<path d="M5.82995 4.49811L5.02559 10.9981C4.99704 11.0999 4.99231 11.207 5.01176 11.311C5.03121 11.415 5.07432 11.513 5.1377 11.5973C5.20108 11.6817 5.28301 11.7501 5.37703 11.7971C5.47106 11.8441 5.57463 11.8685 5.6796 11.8684H9.57581C9.63167 11.8684 9.6868 11.8811 9.73711 11.9056C9.78742 11.93 9.83161 11.9656 9.86638 12.0097C9.90116 12.0537 9.92562 12.1051 9.93795 12.1601C9.95028 12.215 9.95016 12.272 9.9376 12.3268L9.76791 13.0672C9.61247 13.7462 9.56258 14.4458 9.61993 15.1403L9.65116 15.5177C9.68461 15.9225 9.85933 16.3022 10.1443 16.5895C10.405 16.8523 10.7585 16.9999 11.1272 17H11.2086C11.4316 17 11.6369 16.8782 11.7449 16.6818L12.6473 15.0449C13.0519 14.3107 13.6549 13.7074 14.3863 13.3053L16.6464 12.0634C16.7535 12.0045 16.8429 11.9175 16.9051 11.8117C16.9674 11.7058 17.0001 11.585 17 11.462V4.68421C17 4.50275 16.9285 4.32871 16.8012 4.2004C16.6739 4.07209 16.5012 4 16.3212 4H6.48328C6.33548 4.00004 6.19173 4.04871 6.07387 4.13862C5.95602 4.22852 5.87015 4.35474 5.82995 4.49811Z" fill="#A46FF3" stroke="#A46FF3" stroke-linecap="round" stroke-linejoin="round"/>
</svg>
